<svg width="500" height="494" viewBox="0 0 500 494" fill="none" xmlns="http://www.w3.org/2000/svg">
<g clip-path="url(#clip0_79_89)">
<path d="M137.559 -0.517523C140.289 -0.520758 143.02 -0.52994 145.75 -0.538763C152.352 -0.556411 158.954 -0.552771 165.556 -0.541113C170.929 -0.532024 176.301 -0.530878 181.674 -0.535208C182.443 -0.535821 183.212 -0.536434 184.004 -0.537065C185.567 -0.538345 187.13 -0.539641 188.693 -0.540956C203.298 -0.552321 217.903 -0.539312 232.508 -0.517754C245 -0.499887 257.49 -0.502992 269.982 -0.521429C284.54 -0.542908 299.098 -0.551223 313.656 -0.53898C315.213 -0.537706 316.769 -0.536449 318.326 -0.535208C319.092 -0.534591 319.858 -0.533974 320.646 -0.533338C326.003 -0.529906 331.36 -0.535667 336.717 -0.545126C343.259 -0.556426 349.8 -0.553141 356.342 -0.532003C359.67 -0.521598 362.998 -0.519395 366.326 -0.5306C384.486 -0.586061 401.582 0.54701 418.688 7.18755C419.462 7.48235 420.237 7.77714 421.036 8.08087C451.501 20.0958 476.517 44.2022 490 74.0001C498.814 94.6279 500.594 114.761 500.518 137.008C500.523 139.679 500.53 142.351 500.539 145.022C500.557 151.48 500.553 157.937 500.541 164.395C500.532 169.65 500.531 174.905 500.535 180.161C500.536 180.913 500.537 181.666 500.537 182.441C500.538 183.97 500.54 185.499 500.541 187.028C500.552 201.316 500.539 215.603 500.518 229.891C500.5 242.109 500.503 254.327 500.522 266.545C500.543 280.787 500.551 295.028 500.539 309.27C500.538 310.793 500.537 312.316 500.535 313.839C500.534 314.963 500.534 314.963 500.533 316.109C500.53 321.349 500.536 326.589 500.545 331.828C500.557 338.227 500.553 344.626 500.532 351.025C500.522 354.28 500.52 357.535 500.531 360.79C500.587 378.783 499.391 395.741 492.813 412.688C492.518 413.462 492.223 414.237 491.919 415.036C479.904 445.501 455.798 470.517 426 484C405.183 492.895 384.891 494.593 362.441 494.518C359.711 494.521 356.98 494.53 354.25 494.539C347.648 494.557 341.046 494.553 334.444 494.541C329.072 494.532 323.699 494.531 318.326 494.535C317.557 494.536 316.788 494.537 315.996 494.537C314.433 494.538 312.87 494.54 311.307 494.541C296.702 494.552 282.097 494.539 267.492 494.518C255.001 494.5 242.51 494.503 230.019 494.522C215.46 494.543 200.902 494.551 186.344 494.539C184.787 494.538 183.231 494.537 181.674 494.535C180.908 494.535 180.143 494.534 179.354 494.533C173.997 494.53 168.64 494.536 163.283 494.545C156.741 494.557 150.2 494.553 143.658 494.532C140.33 494.522 137.003 494.519 133.674 494.531C115.514 494.586 98.4181 493.453 81.3126 486.813C80.5377 486.518 79.7628 486.223 78.9644 485.919C48.4993 473.904 23.4834 449.798 10.0001 420C1.18604 399.372 -0.594125 379.239 -0.517523 356.992C-0.522955 354.321 -0.529941 351.649 -0.538763 348.978C-0.556406 342.52 -0.552773 336.063 -0.541113 329.606C-0.532023 324.35 -0.530879 319.095 -0.535208 313.839C-0.535821 313.087 -0.536438 312.335 -0.53707 311.559C-0.538349 310.03 -0.539646 308.501 -0.540961 306.972C-0.552325 292.684 -0.539312 278.397 -0.517752 264.11C-0.499885 251.891 -0.502993 239.673 -0.521429 227.455C-0.54291 213.213 -0.551218 198.972 -0.538977 184.73C-0.537703 183.207 -0.536449 181.684 -0.535208 180.161C-0.534591 179.412 -0.533967 178.663 -0.533331 177.891C-0.5299 172.651 -0.535665 167.412 -0.545126 162.172C-0.556428 155.773 -0.553137 149.374 -0.532004 142.975C-0.521602 139.72 -0.519391 136.465 -0.5306 133.21C-0.5868 115.218 0.608879 98.2588 7.18755 81.3126C7.62974 80.1502 7.62974 80.1502 8.08087 78.9644C20.0958 48.4993 44.2022 23.4834 74.0001 10.0001C94.8174 1.10505 115.109 -0.593101 137.559 -0.517523Z" fill="#063293"/>
<path d="M309.144 73.3242C316.818 77.8276 322.398 83.4709 326.16 91.543C327.854 93.235 327.854 93.235 329.851 92.7986C331.407 92.4222 332.957 92.0212 334.501 91.6013C338.514 90.6357 342.454 90.6708 346.562 90.6875C347.361 90.6714 348.16 90.6553 348.982 90.6387C360.513 90.6293 370.428 96.4045 378.75 104.125C384.975 110.648 389.263 119.141 391 128C390.814 129.918 390.814 129.918 390.625 131.875C390.749 132.906 390.872 133.938 391 135C394.056 135.807 394.056 135.807 396.473 135.855C410.136 136.637 421.888 143.81 431.07 153.664C439.313 163.642 443.545 175.137 443.324 188.105C443 191 443 191 442.082 193.738C441.055 196.838 440.549 198.744 441 202C443.619 205.823 447.232 208.786 450.652 211.871C454.88 215.698 457.577 219.856 460 225C460.409 225.802 460.817 226.604 461.238 227.43C466.222 238.699 465.419 252.613 461.328 264.035C457.484 272.616 451.942 282.226 443.113 286.348C439.748 287.964 437.489 289.195 435 292C433.997 296.452 434.575 301.028 434.852 305.543C435.351 314.474 431.399 321.409 425.809 328.117C423.375 330.651 421.097 332.343 418 334C417.34 334 416.68 334 416 334C416 334.66 416 335.32 416 336C407.381 340.855 396.541 339.963 387.375 337.438C380.911 335.254 375.574 331.868 370 328C369.34 327.67 368.68 327.34 368 327C368.794 327.987 369.588 328.975 370.406 329.992C371.438 331.286 372.469 332.581 373.5 333.875C374.025 334.526 374.549 335.177 375.09 335.848C375.834 336.785 375.834 336.785 376.594 337.742C377.055 338.318 377.515 338.894 377.99 339.488C379 341 379 341 379 343C379.66 343 380.32 343 381 343C381.784 346.583 380.71 348.9 378.937 351.938C373.486 360.045 365.6 365.08 356 367C348.458 367.772 341.747 366.987 334.562 364.75C333.57 364.443 333.57 364.443 332.558 364.13C329.204 363.007 326.388 361.682 323.527 359.641C322.693 359.099 321.859 358.558 321 358C321 358.99 321 359.98 321 361C320.34 361 319.68 361 319 361C318.732 361.701 318.464 362.402 318.187 363.125C315.826 368.842 312.328 372.281 306.851 375.055C304.988 375.958 304.988 375.958 303.336 377.133C296.589 381.383 288.64 380.868 281 380C272.824 377.603 266.494 372.214 262.187 364.938C261.6 363.483 261.6 363.483 261 362C260.65 361.196 260.301 360.392 259.941 359.564C258.573 354.381 258.731 349.372 258.757 344.033C258.755 342.821 258.753 341.61 258.751 340.361C258.748 337.016 258.754 333.671 258.764 330.326C258.773 326.738 258.77 323.149 258.769 319.561C258.769 312.586 258.78 305.611 258.796 298.636C258.809 292.996 258.819 287.357 258.827 281.717C258.852 263.631 258.895 245.544 258.954 227.458C258.98 219.594 259.004 211.729 259.022 203.864C259.024 203.127 259.025 202.39 259.027 201.631C259.029 200.899 259.031 200.168 259.032 199.414C259.067 184.357 259.125 169.3 259.21 154.242C259.239 149.22 259.258 144.198 259.27 139.176C259.285 133.306 259.319 127.438 259.368 121.569C259.383 119.441 259.391 117.314 259.392 115.187C259.408 94.7739 259.408 94.7739 264 87C264.518 86.0977 265.036 85.1953 265.57 84.2656C276.265 70.3998 293.123 65.8109 309.144 73.3242Z" fill="#062F8C"/>
<path d="M315.312 95.125C320.671 98.8638 324.695 102.347 326 109C325.932 111.396 325.818 113.759 325.582 116.145C325.72 116.757 325.858 117.369 326 118C328.15 118.663 328.15 118.663 331 119C334.419 120.144 337.76 121.515 341.117 122.828C346.422 124.99 346.422 124.99 352 126C353.366 125.045 354.699 124.042 356 123C360.178 122.16 364.278 122.192 368.172 124.02C371.194 126.087 372.829 127.486 374 131C373.77 132.166 373.77 132.166 373.535 133.356C372.914 137.074 372.969 139.331 374 143C377.983 148.409 383.155 152.86 388.191 157.268C390 159 390 159 391.515 161.199C392.25 162.091 392.25 162.091 393 163C395.714 163.218 398.061 163.242 400.75 163.063C407.511 162.64 412.759 163.178 418.144 167.867C423.008 173.721 425.51 177.909 425.316 185.66C424.451 192.057 420.851 196.896 416 201C415.01 201.33 414.02 201.66 413 202C412.923 204.002 412.923 204.002 413.51 206.38C413.793 207.777 413.793 207.777 414.081 209.202C414.305 210.216 414.53 211.229 414.762 212.273C415.099 213.826 415.099 213.826 415.443 215.409C415.928 217.605 416.422 219.799 416.924 221.991C417.681 225.346 418.373 228.71 419.064 232.078C419.543 234.207 420.025 236.334 420.512 238.461C420.71 239.47 420.908 240.48 421.113 241.52C421.806 244.354 422.426 246.54 424 249C427.242 250.745 430.407 251.347 434 252C438.09 254.176 441.155 256.918 444 260.563C445.876 267.01 446.293 273.565 443.898 279.926C440.818 285.486 437.788 288.44 432 291C431.34 291.33 430.68 291.66 430 292C422.54 292.7 416.213 292.476 410 288C408.285 286.488 408.285 286.488 407 285C407 284.34 407 283.68 407 283C405.032 283.558 405.032 283.558 402.652 284.668C401.736 285.067 400.821 285.466 399.877 285.877C398.907 286.309 397.937 286.742 396.937 287.188C395.523 287.807 395.523 287.807 394.08 288.439C392.232 289.25 390.386 290.067 388.544 290.891C386.97 291.577 385.382 292.233 383.776 292.839C381.663 293.601 381.663 293.601 379 295C378.342 298.466 378.342 298.466 378.289 300.871C377.645 305.617 374.248 308.925 370.75 311.938C365.944 313.795 361.206 313.552 356.25 312.313C352.894 310.355 351.228 309.311 349 306C348.185 300.61 347.714 294.866 349.992 289.789C351.25 288.188 351.25 288.188 354 286C354.731 285.929 355.462 285.858 356.215 285.785C357.098 285.397 357.098 285.397 358 285C358.07 281.91 358.07 281.91 357.312 278.25C357.079 276.886 356.85 275.522 356.625 274.156C356.51 273.464 356.395 272.772 356.277 272.059C355.86 268.963 355.869 265.87 355.812 262.75C355.713 258.681 355.713 258.681 353.453 255.598C351.333 254.655 351.333 254.655 348 254C347.34 253.34 346.68 252.68 346 252C342.28 252.348 339.597 253.595 336.426 255.504C335.178 256.244 335.178 256.244 333.904 256.998C333.049 257.514 332.194 258.031 331.312 258.563C329.602 259.589 327.89 260.611 326.176 261.629C325.422 262.083 324.668 262.538 323.892 263.006C322 264 322 264 320 264C319.957 266.021 320.02 268.044 320.125 270.063C320.205 276.184 319.795 279.206 316 284C311.747 288.346 307.727 290.798 301.625 291.25C294.547 290.762 290.058 289.058 285 284C281.183 278.978 280.304 275.022 280.547 268.719C281.485 263.089 284.548 259.489 288.437 255.5C291 254 291 254 294.11 254.544C295.064 254.365 296.017 254.185 297 254C298.047 250.67 297.838 247.251 297.797 243.789C297.803 242.751 297.808 241.712 297.814 240.642C297.818 238.438 297.807 236.234 297.782 234.029C297.75 230.646 297.782 227.267 297.82 223.883C297.816 221.747 297.809 219.612 297.797 217.477C297.809 216.459 297.821 215.441 297.834 214.393C297.781 211.787 297.713 209.507 297 207C294.185 205.33 294.185 205.33 291 205C285.635 200.273 281.511 195.926 280.762 188.703C280.547 181.617 281.748 176.543 286.613 171.242C289.583 168.516 291.336 167.123 295.375 166.375C296.674 165.694 296.674 165.694 298 165C298.959 161.756 298.959 158.536 298.972 155.17C299.005 152.594 299.133 150.027 299.254 147.453C299.318 145.469 299.379 143.485 299.437 141.5C299.484 140.532 299.531 139.565 299.58 138.567C299.619 135.916 299.592 133.586 299 131C296.267 128.459 296.267 128.459 293 127C288.881 122.786 287.67 118.645 287.562 112.813C287.676 107.733 288.307 103.826 291.84 100.016C292.532 99.433 293.224 98.8504 293.937 98.25C294.627 97.6571 295.317 97.0641 296.027 96.4532C301.366 92.5208 309.296 93.0818 315.312 95.125Z" fill="#BBBBFC"/>
<path d="M316.93 64.5782C322.916 68.18 329.779 72.5582 333 79C334.991 79.2466 334.991 79.2466 337.375 79.125C338.73 79.1018 338.73 79.1018 340.113 79.0782C342.006 79.0269 343.9 78.9749 345.793 78.9219C355.328 78.7605 362.757 80.4502 371.187 84.875C371.86 85.2141 372.532 85.5531 373.225 85.9024C387.519 93.2234 396.585 104.844 401.52 120.055C402 122 402 122 402 125C404.093 125.601 404.093 125.601 406.75 125.813C422.791 128.345 435.708 139.94 445.293 152.469C448.148 156.703 450.206 161.229 452 166C452.384 167.011 452.768 168.021 453.164 169.063C454.363 173.384 453.941 177.61 453.717 182.048C452.971 191.926 452.971 191.926 455.715 201.145C457.965 203.228 457.965 203.228 460.477 204.977C470.149 212.732 474.614 228.237 476 240C477.22 257.086 472.029 272.773 461.484 286.219C457.773 290.373 453.692 293.984 449 297C448.34 297 447.68 297 447 297C446.831 299.708 446.831 299.708 447 303C447.15 316.874 441.789 327.908 432.148 337.949C429.559 340.421 427.158 342.295 424 344C423.008 344.628 423.008 344.628 421.996 345.27C414.286 349.564 406.357 349.839 397.709 350.192C396.73 350.243 395.751 350.295 394.742 350.348C393.854 350.379 392.966 350.41 392.05 350.442C391.035 350.718 391.035 350.718 390 351C389.231 352.85 389.231 352.85 389 355C385.581 361.594 382.343 367.483 375 370C375 370.66 375 371.32 375 372C372.367 373.254 372.367 373.254 368.875 374.563C367.738 374.997 366.601 375.431 365.43 375.879C356.167 378.907 341.932 380.25 332.809 375.973C331.459 375.235 330.128 374.462 328.824 373.645C326.957 372.775 326.957 372.775 324.894 373.699C322.717 375.022 322.717 375.022 321 378C320.34 378 319.68 378 319 378C319 378.66 319 379.32 319 380C316.551 381.656 316.551 381.656 313.312 383.5C312.257 384.108 311.201 384.717 310.113 385.344C300.001 390.724 287.792 391.846 276.687 388.813C268.065 385.831 262.055 380.744 256.312 373.75C254.296 370.983 254.296 370.983 252 370C250.933 371.799 250.933 371.799 250 374C249.34 374.99 248.68 375.98 248 377C247.34 377 246.68 377 246 377C246 377.66 246 378.32 246 379C245.34 379 244.68 379 244 379C244 379.66 244 380.32 244 381C237.42 386.226 228.239 390.503 219.672 389.813C219.12 389.544 218.568 389.276 218 389C217.506 383.81 217.506 383.81 218 381C220.525 378.475 222.28 378.359 225.75 377.625C230.755 376.446 233.97 375.123 238 372C238.742 371.67 239.485 371.34 240.25 371C242.542 369.691 242.893 368.374 244 366C244.348 365.349 244.695 364.698 245.053 364.027C248.093 357.925 248.562 352.772 248.485 346.021C248.489 344.948 248.493 343.876 248.497 342.771C248.506 339.194 248.486 335.619 248.467 332.042C248.467 329.471 248.469 326.899 248.474 324.328C248.48 318.798 248.472 313.269 248.455 307.739C248.431 299.73 248.434 291.722 248.445 283.713C248.462 270.698 248.464 257.684 248.454 244.669C248.453 243.502 248.453 243.502 248.453 242.312C248.446 233.636 248.437 224.961 248.426 216.285C248.422 213.141 248.419 209.996 248.415 206.852C248.414 206.076 248.413 205.3 248.413 204.501C248.398 191.538 248.403 178.576 248.423 165.613C248.434 157.63 248.429 149.647 248.401 141.665C248.381 135.539 248.386 129.415 248.401 123.289C248.403 120.786 248.396 118.282 248.38 115.778C248.273 98.0448 249.122 84.166 262.066 70.879C266.941 66.2587 271.676 63.2294 278 61C278.901 60.6443 279.802 60.2885 280.73 59.9219C292.816 56.5143 306.058 58.7221 316.93 64.5782ZM267.277 82.1055C261.844 89.8615 259.551 96.9173 259.568 106.287C259.557 107.193 259.547 108.099 259.537 109.032C259.506 112.065 259.497 115.097 259.488 118.129C259.471 120.328 259.453 122.527 259.433 124.727C259.384 130.744 259.354 136.76 259.329 142.777C259.307 147.845 259.275 152.912 259.244 157.979C259.164 171.054 259.106 184.129 259.06 197.204C259.021 208.093 258.971 218.983 258.914 229.872C258.832 245.467 258.768 261.063 258.728 276.658C258.724 278.272 258.72 279.886 258.716 281.499C258.714 282.295 258.712 283.091 258.71 283.911C258.694 289.52 258.669 295.13 258.64 300.739C258.605 307.621 258.584 314.503 258.582 321.385C258.58 324.921 258.572 328.456 258.547 331.992C258.519 335.854 258.523 339.716 258.53 343.579C258.517 344.698 258.504 345.817 258.491 346.97C258.558 357.035 261.2 364.933 268.133 372.313C270.899 374.813 273.65 376.357 277 378C277.574 378.353 278.147 378.706 278.738 379.07C285.157 381.709 293.992 380.981 300.473 378.867C307.942 375.26 315.349 370.731 319 363C319 362.34 319 361.68 319 361C319.66 361 320.32 361 321 361C321 360.01 321 359.02 321 358C322.031 358.681 323.062 359.361 324.125 360.063C334.29 366.732 346.963 368.737 358.824 366.457C369.255 363.635 375.657 357.301 381 348C381.505 345.244 381.505 345.244 381 343C380.34 343 379.68 343 379 343C378.734 342.305 378.469 341.61 378.195 340.895C376.699 337.272 374.413 334.613 371.875 331.688C371.407 331.138 370.939 330.588 370.457 330.022C369.31 328.676 368.156 327.337 367 326C367.8 326.563 367.8 326.563 368.617 327.137C381.06 335.683 391.72 340.246 407 339C410.143 338.329 413.186 337.585 416 336C416 335.34 416 334.68 416 334C416.701 333.732 417.402 333.464 418.125 333.188C425.657 330.077 429.561 324.148 433 317C434.804 312.131 435.043 308.399 434.615 303.339C434.324 299.503 434.123 295.77 435 292C438.108 288.482 441.816 286.998 446 285C455.56 277.599 462.354 265.966 464 254C464.876 243.748 464.76 234.34 460 225C459.622 224.198 459.245 223.396 458.855 222.57C456.194 217.537 453.017 214.004 448.832 210.23C441.175 203.263 441.175 203.263 440.605 199.148C441.208 196.34 442.088 193.722 443 191C444.417 178.349 440.626 166.124 433 156C422.585 143.651 410.584 137.825 395 135C393.68 135 392.36 135 391 135C391 133.44 391.02 131.878 391.102 130.32C390.619 119.297 383.821 109.09 376.051 101.699C366.882 94.1025 358.479 90.6364 346.625 90.75C345.826 90.7423 345.027 90.7346 344.203 90.7266C339.919 90.7405 336.25 91.1309 332.117 92.2891C329.884 92.8321 329.884 92.8321 328 93C325.906 91.2891 325.906 91.2891 324.5 88.625C318.658 78.986 310.991 72.9302 300 70C287.461 68.3252 275.428 72.143 267.277 82.1055Z" fill="#9EBEF8"/>
<path d="M126.563 244.75C127.536 244.754 128.509 244.757 129.511 244.761C188.14 245.028 188.14 245.028 203 257C203.536 257.389 204.073 257.779 204.625 258.18C207.682 262.226 206.516 268.683 206.501 273.623C206.5 275.861 206.542 278.095 206.586 280.332C206.591 281.76 206.594 283.189 206.594 284.617C206.601 285.912 206.608 287.208 206.615 288.542C205.849 292.85 204.34 294.274 201 297C181.254 308.796 155.454 308.187 133.279 308.185C130.269 308.187 127.26 308.206 124.25 308.225C115.125 308.252 106.067 308.116 96.9844 307.176C96.2741 307.106 95.5637 307.037 94.8319 306.966C90.0139 306.391 86.146 305.476 82 303C81.3323 300.228 81.3323 300.228 81.5977 296.906C81.6563 295.711 81.715 294.516 81.7754 293.285C81.9669 290.761 82.1622 288.238 82.3614 285.715C82.5235 282.336 82.6368 279.324 82 276C79.6078 273.8 77.1421 273.493 74 273C71.7686 272.194 69.5392 271.382 67.3125 270.562C66.2362 270.172 65.1598 269.781 64.0508 269.379C60.876 267.944 58.5476 266.368 56 264C55.9132 261.308 57.081 259.853 58.375 257.5C64.1353 252.014 72.637 250.73 80.1875 248.875C80.8207 248.716 81.4539 248.558 82.1062 248.394C96.8249 244.974 111.535 244.662 126.563 244.75Z" fill="#60D5FC"/>
<path d="M405.795 200.562C408.875 200.793 410.47 201.198 413 203C417.98 212.332 419.008 223.623 420.665 233.946C421.185 237.131 421.76 240.297 422.394 243.461C422.69 245.003 422.69 245.003 422.991 246.576C423.786 249.187 423.786 249.187 426.277 250.285C428.714 250.983 428.714 250.983 431.359 251.414C436.801 252.622 440.647 256.266 444 260.562C445.876 267.01 446.293 273.565 443.898 279.926C440.818 285.486 437.788 288.44 432 291C431.01 291.495 431.01 291.495 430 292C422.54 292.7 416.213 292.476 410 288C408.285 286.488 408.285 286.488 407 285C407 284.34 407 283.68 407 283C405.032 283.558 405.032 283.558 402.652 284.668C401.736 285.067 400.821 285.466 399.877 285.877C398.907 286.309 397.937 286.742 396.937 287.188C395.995 287.601 395.052 288.014 394.08 288.439C392.231 289.25 390.385 290.068 388.543 290.893C386.974 291.576 385.389 292.227 383.785 292.824C381.672 293.573 381.672 293.573 379 295C377.994 297.002 377.994 297.002 378.125 299.188C378.084 300.446 378.042 301.704 378 303C377.67 303 377.34 303 377 303C376.784 301.234 376.629 299.461 376.5 297.688C376.268 294.523 376.007 292.022 375 289C372.678 287.624 370.364 286.776 367.812 285.875C366.884 285.256 365.956 284.637 365 284C364.498 281.274 364.184 278.751 364 276C363.944 275.239 363.889 274.479 363.832 273.695C362.849 257.244 362.849 257.244 366.875 252.062C367.915 251.04 368.957 250.019 370 249C371.921 245.945 372.248 243.646 372.187 240.062C372.181 239.228 372.175 238.394 372.168 237.535C372.106 234.975 372.106 234.975 371.184 232.566C371 230 371 230 372.992 227.055C373.938 225.982 374.9 224.922 375.875 223.875C376.894 222.73 377.912 221.584 378.93 220.438C379.445 219.865 379.96 219.293 380.491 218.703C382.745 216.159 384.867 213.522 387 210.875C392.811 203.675 396.41 201.239 405.795 200.562Z" fill="#8091FA"/>
<path d="M228.668 59.0625C233.822 62.2396 238.06 66.171 240 72C241.048 78.8258 241.168 85.0648 237.437 91.0625C233.798 95.694 229.649 99.117 224 101C216.085 101.908 210.434 100.759 204 96C203.477 95.4392 202.953 94.8785 202.414 94.3008C201.714 93.6569 201.714 93.6569 201 93C197.186 93.7265 194.136 95.4603 190.812 97.375C187.638 99.1903 184.587 100.58 181.125 101.75C173.23 104.478 165.808 108.276 158.294 111.897C155.018 113.472 151.731 115.023 148.437 116.562C147.426 117.038 146.414 117.514 145.371 118.004C143 119 143 119 141 119C140.558 122.132 140.558 122.132 140.562 125.875C140.523 127.151 140.483 128.427 140.441 129.742C140.626 130.817 140.81 131.892 141 133C143.092 134.317 143.092 134.317 146 135C147.31 135.667 148.604 136.369 149.883 137.094C150.575 137.484 151.267 137.875 151.98 138.277C153.042 138.883 153.042 138.883 154.125 139.5C155.198 140.105 155.198 140.105 156.293 140.723C159.266 142.407 162.154 144.103 165 146C164.78 149.303 163.359 151.726 161 154C155.708 153.87 151.647 150.369 147.437 147.5C145.94 146.484 144.438 145.474 142.934 144.469C142.274 144.02 141.615 143.57 140.935 143.107C138.892 141.938 137.341 141.275 135 141C131.907 142.84 131.907 142.84 129 145C122.878 147.041 115.58 146.876 109.5 144.812C104.221 140.985 99.3112 136.556 98 130C97.323 122.853 97.6005 116.879 102 111C106.708 105.991 111.228 103.015 118.187 102.625C124.192 102.746 130.699 104.699 135 109C140.438 108.724 144.767 106.967 149.562 104.562C151.058 103.836 152.554 103.11 154.051 102.387C154.846 102 155.64 101.614 156.459 101.216C161.024 99.0312 165.638 96.9579 170.25 94.875C177.438 91.6241 184.605 88.3389 191.734 84.9609C194 84 194 84 196 84C195.938 82.7212 195.876 81.4425 195.812 80.125C195.68 73.6418 198.215 68.1951 202.457 63.3281C209.287 57.2008 220.204 55.6918 228.668 59.0625Z" fill="#54EDFA"/>
<path d="M206 300C206.477 304.162 206.414 308.356 206.426 312.543C206.437 314.662 206.486 316.778 206.537 318.896C206.547 320.247 206.554 321.598 206.559 322.949C206.579 324.795 206.579 324.795 206.599 326.678C205.691 331.711 202.703 333.77 198.707 336.656C170.69 350.564 125.41 349.881 95.135 344.384C92.8789 343.949 92.8789 343.949 90.0818 343.716C86.9006 343.221 84.7043 342.762 82 341C80.5695 336.66 80.9194 332.457 81.1875 327.938C81.2905 325.552 81.3686 323.165 81.418 320.777C81.4775 319.718 81.537 318.658 81.5984 317.566C81.4009 316.719 81.2035 315.872 81 315C78.0155 313.785 78.0155 313.785 75 313C75 312.01 75 311.02 75 310C77.7528 310.178 80.2923 310.525 83 311C84.6245 311.243 86.2496 311.482 87.875 311.719C90.443 312.109 93.0106 312.502 95.5781 312.895C96.4186 313.022 97.2591 313.15 98.125 313.281C98.8701 313.395 99.6152 313.509 100.383 313.627C106.681 314.525 112.768 315.157 119.137 315.168C119.89 315.172 120.643 315.176 121.42 315.181C123.842 315.191 126.265 315.191 128.688 315.188C129.93 315.187 129.93 315.187 131.197 315.186C156.475 315.136 184.83 300 206 300Z" fill="#1666E7"/>
<path d="M56 337C57.0106 337.804 58.0213 338.609 59.0625 339.438C83.088 358.556 131.203 354.955 159.512 351.987C183.684 349.688 183.684 349.688 204 338C204.66 338 205.32 338 206 338C206.477 342.023 206.414 346.067 206.426 350.115C206.437 352.162 206.486 354.206 206.537 356.252C206.544 357.544 206.551 358.837 206.559 360.168C206.579 361.951 206.579 361.951 206.599 363.77C205.831 367.911 204.189 369.349 201 372C177.754 386.729 142.619 383.614 116.345 383.091C112.94 383.024 109.541 382.998 106.135 383.022C86.7702 383.093 86.7702 383.093 81 379C78.154 372.468 79.2707 365.704 80.1406 358.84C80.5307 355.704 80.5307 355.704 80 353C76.9222 350.827 73.6648 350.551 70 350C67.8036 349.067 65.6299 348.076 63.5 347C62.4997 346.505 61.4994 346.01 60.4688 345.5C58 344 58 344 56 341C56 339.68 56 338.36 56 337Z" fill="#145ADE"/>
<path d="M295 206C298.87 205.745 302.313 205.702 306 207C307.618 210.464 307.062 213.951 306.75 217.687C306.708 218.755 306.666 219.822 306.623 220.922C306.386 226.432 305.927 231.922 305.488 237.418C305.383 238.922 305.383 238.922 305.276 240.456C305.135 242.38 304.958 244.301 304.743 246.217C304.55 248.649 304.402 250.634 305 253C308.175 254.747 308.175 254.747 312 255C312.787 255.225 313.574 255.449 314.384 255.681C319.76 256.337 324.584 252.599 329.187 250.125C330.845 249.301 330.845 249.301 332.537 248.461C338.295 245.601 338.295 245.601 342.079 240.686C342.589 238.33 342.589 238.33 342.787 236.007C343.072 233.323 344.107 231.938 345.937 230C346.441 229.443 346.945 228.886 347.465 228.312C351.465 224.893 357.065 225.714 362 226C366.404 226.901 369.068 229.439 371.816 232.887C374.064 236.899 374.007 240.585 373 245C370.934 249.475 368.493 253.506 365 257C364.707 258.902 364.707 258.902 364.769 261.07C364.771 261.885 364.773 262.7 364.775 263.539C364.788 264.392 364.8 265.246 364.812 266.125C364.813 266.955 364.814 267.785 364.814 268.641C364.851 273.832 365.033 278.892 366 284C368.749 285.792 368.749 285.792 372 287C374.875 288.937 374.875 288.937 377 292C377.91 297.632 377.765 302.384 375.312 307.562C371.557 311.521 368.971 313.158 363.5 313.312C358.486 313.113 355.441 311.896 351.187 309.25C347.597 303.916 348.082 298.222 349 292C350.341 289.012 351.36 288.1 354 286C354.731 285.929 355.462 285.858 356.215 285.785C356.804 285.526 357.393 285.267 358 285C358.07 281.91 358.07 281.91 357.312 278.25C357.079 276.886 356.85 275.521 356.625 274.156C356.51 273.464 356.395 272.772 356.277 272.058C355.86 268.963 355.869 265.87 355.812 262.75C355.713 258.681 355.713 258.681 353.453 255.598C351.333 254.655 351.333 254.655 348 254C347.34 253.34 346.68 252.68 346 252C342.28 252.347 339.597 253.595 336.426 255.504C335.594 255.997 334.762 256.49 333.904 256.998C333.049 257.514 332.194 258.03 331.312 258.562C329.602 259.588 327.89 260.611 326.176 261.629C325.422 262.083 324.668 262.538 323.892 263.006C322 264 322 264 320 264C319.957 266.021 320.02 268.044 320.125 270.062C320.205 276.184 319.795 279.206 316 284C311.747 288.346 307.727 290.798 301.625 291.25C294.547 290.762 290.058 289.058 285 284C281.183 278.978 280.304 275.022 280.547 268.719C281.485 263.089 284.548 259.489 288.437 255.5C291 254 291 254 294.119 254.547C295.545 254.276 295.545 254.276 297 254C297.999 250.65 297.74 247.221 297.656 243.754C297.652 242.713 297.649 241.672 297.645 240.6C297.631 238.391 297.603 236.183 297.562 233.974C297.5 230.581 297.481 227.189 297.469 223.795C297.45 221.656 297.43 219.517 297.406 217.379C297.398 216.356 297.389 215.333 297.38 214.279C297.361 213.338 297.342 212.397 297.322 211.428C297.302 210.179 297.302 210.179 297.281 208.904C297.188 208.276 297.095 207.647 297 207C296.34 206.67 295.68 206.34 295 206Z" fill="#65D0FB"/>
<path d="M364.898 188.637C367.224 188.549 369.549 188.462 371.875 188.375C372.948 188.303 374.021 188.231 375.127 188.157C378.019 188.088 380.255 188.084 383 189C385.349 191.729 386.559 194.426 387 198C385.613 201.731 383.147 204.184 380.438 207.063C376.024 211.829 371.883 216.719 367.813 221.785C364.402 225.953 364.402 225.953 361.355 226.309C359.251 226.394 357.147 226.478 355.043 226.559C350.284 227.249 347.762 229.069 344.75 232.75C342.732 235.87 342.732 235.87 343.035 239.309C341.826 243.619 341.125 243.978 337.449 246.238C335.542 247.288 333.621 248.312 331.688 249.313C330.724 249.837 329.76 250.361 328.768 250.9C326.192 252.295 323.604 253.66 321 255C319.928 255.58 319.928 255.58 318.835 256.173C316.179 257.37 314.77 256.837 312 256C310.2 255.532 310.2 255.532 308.363 255.055C305 253 305 253 304.417 251.08C304.265 248.46 304.343 245.932 304.5 243.313C304.536 242.351 304.573 241.389 304.61 240.399C304.689 238.341 304.781 236.283 304.884 234.226C305.002 230.935 304.967 227.674 304.898 224.383C304.889 222.234 304.882 220.086 304.875 217.938C304.838 216.922 304.802 215.905 304.764 214.859C304.805 211.922 304.919 209.735 306 207C308.433 205.155 310.698 204.103 313.559 203.051C317.365 201.412 319.166 198.607 321 195C321.211 194.152 321.422 193.303 321.639 192.429C322.088 191.627 322.537 190.826 323 190C325.936 189.341 325.936 189.341 329.719 189.293C330.401 189.277 331.083 189.262 331.786 189.246C334.024 189.201 336.261 189.193 338.5 189.188C340.039 189.171 341.578 189.153 343.118 189.133C345.46 189.106 347.802 189.082 350.145 189.07C355.074 189.043 359.975 188.886 364.898 188.637Z" fill="#06308E"/>
<path d="M345.062 251.125C347.314 252.142 349.032 253.51 351 255C351.84 255.187 352.681 255.374 353.547 255.566C354.356 256.04 355.166 256.513 356 257C356.731 259.986 357.113 262.471 357.312 265.5C357.413 266.72 357.413 266.72 357.516 267.965C357.642 269.579 357.756 271.194 357.858 272.81C357.976 274.634 358.144 276.454 358.324 278.274C358.487 280.684 358.585 282.657 358 285C355.125 287.438 355.125 287.438 352 289C349.563 292.656 349.701 294.587 349.687 298.938C349.671 300.163 349.654 301.389 349.637 302.652C349.685 306.063 349.685 306.063 351.926 308.219C352.28 308.807 352.635 309.394 353 310C350.815 311.552 348.938 312.507 346.5 313.563C345.017 314.262 343.536 314.962 342.055 315.664C340.37 316.444 338.685 317.222 337 318C333.184 319.766 329.399 321.585 325.625 323.438C324.243 324.064 324.243 324.064 322.834 324.703C317.986 326.978 317.986 326.978 315.083 331.229C314.778 332.8 314.523 334.381 314.326 335.969C313.878 338.759 312.748 339.862 310.5 341.5C309.587 342.196 309.587 342.196 308.656 342.906C304.976 345.337 302.42 345.507 298 345C294.726 342.902 291.755 340.51 290 337C289.482 332.887 289.075 328.76 291.047 325.008C292.375 323.375 292.375 323.375 295 321C295.66 321 296.32 321 297 321C297.03 317.969 297.03 317.969 296.66 314.219C296.565 312.806 296.472 311.393 296.381 309.981C296.228 307.733 296.061 305.489 295.858 303.245C295.464 298.769 295.082 294.434 296 290C299.061 288.495 301.76 289.364 305 290C310.886 288.407 314.567 284.889 318 280C319.207 277.081 319.207 277.081 318.684 274.215C318.383 270.218 318.513 267.755 320 264C324.583 259.929 330.385 257.482 335.924 254.976C338.192 253.953 338.192 253.953 340.949 252.219C343 251 343 251 345.062 251.125Z" fill="#81B3F8"/>
<path d="M315.312 95.125C320.671 98.8638 324.695 102.347 326 109C325.932 111.396 325.818 113.759 325.582 116.145C325.72 116.757 325.858 117.369 326 118C328.15 118.668 328.15 118.668 331 119C333.703 119.88 336.347 120.917 339 121.938C339.699 122.202 340.397 122.467 341.117 122.74C342.468 123.254 343.816 123.775 345.16 124.304C346.79 124.921 348.456 125.439 350.125 125.941C351.053 126.465 351.053 126.465 352 127C351.316 128.859 351.316 128.859 350 131C349.933 132.415 349.915 133.833 349.938 135.25C349.531 139.47 348.276 141.201 345.125 144C343.433 145.353 341.723 146.686 340 148C338.246 149.433 336.496 150.871 334.75 152.313C333.832 153.049 332.914 153.785 331.969 154.543C329.801 156.337 327.723 158.148 325.656 160.051C324.806 160.817 324.806 160.817 323.938 161.598C322.837 162.594 321.75 163.606 320.679 164.634C317.92 167.098 316.477 168.01 312.734 167.93C310.886 167.47 310.886 167.47 309 167C308.123 167.021 307.246 167.041 306.342 167.063C303.209 166.983 301.546 166.865 299 165C297.8 159.38 298.338 153.823 298.75 148.125C298.901 145.755 299.037 143.386 299.137 141.013C299.201 139.536 299.295 138.059 299.423 136.586C299.601 134.284 299.601 134.284 299 131C296.194 128.546 296.194 128.546 293 127C288.881 122.786 287.67 118.645 287.562 112.813C287.676 107.733 288.307 103.826 291.84 100.016C292.532 99.433 293.224 98.8504 293.938 98.25C294.627 97.6571 295.317 97.0641 296.027 96.4532C301.366 92.5208 309.296 93.0818 315.312 95.125Z" fill="#6BE4FB"/>
<path d="M79 274C83.6807 274.384 88.2278 274.847 92.8398 275.759C102.319 277.627 111.141 278.1 120.793 277.562C150.543 276.102 150.543 276.102 158 279C160.695 282.381 160.911 284.43 161.034 288.721C160.417 293.745 159.256 298.575 158.063 303.489C158.032 304.732 158.032 304.732 158 306C161.05 307.345 163.812 306.58 167 306C167 306.33 167 306.66 167 307C155.891 308.521 144.466 308.186 133.279 308.185C130.269 308.187 127.26 308.206 124.25 308.225C115.125 308.252 106.067 308.116 96.9844 307.176C96.274 307.106 95.5637 307.037 94.8318 306.966C90.0117 306.391 86.1501 305.473 82 303C81.2529 300.213 81.2529 300.213 81.4219 296.871C81.458 295.672 81.4941 294.472 81.5312 293.236C81.6034 291.983 81.6756 290.729 81.75 289.438C81.8619 286.958 81.9615 284.477 82.0469 281.996C82.1071 280.895 82.1674 279.793 82.2295 278.658C82.1538 277.781 82.078 276.904 82 276C81.01 275.34 80.02 274.68 79 274Z" fill="#1A6FED"/>
<path d="M133 107C136.207 109.945 139.044 113.089 141 117C140.926 120.417 140.824 123.823 140.609 127.234C140.485 129.629 140.485 129.629 141 133C143.07 134.387 143.07 134.387 146 135C147.311 135.665 148.605 136.367 149.883 137.094C150.575 137.484 151.267 137.875 151.98 138.277C152.688 138.681 153.396 139.084 154.125 139.5C154.84 139.903 155.556 140.307 156.293 140.723C159.266 142.407 162.154 144.103 165 146C164.78 149.303 163.359 151.725 161 154C155.708 153.87 151.647 150.369 147.437 147.5C145.94 146.484 144.438 145.474 142.934 144.469C142.274 144.019 141.615 143.57 140.935 143.107C138.892 141.938 137.341 141.275 135 141C131.907 142.84 131.907 142.84 129 145C122.878 147.041 115.58 146.875 109.5 144.812C104.221 140.985 99.3112 136.556 98 130C97.323 122.853 97.6005 116.879 102 111C110.856 101.578 121.822 100.334 133 107Z" fill="#9EEDFC"/>
<path d="M206 300C206.477 304.162 206.414 308.356 206.426 312.543C206.437 314.662 206.486 316.778 206.537 318.896C206.547 320.247 206.554 321.598 206.559 322.949C206.579 324.795 206.579 324.795 206.599 326.678C205.694 331.693 202.719 333.727 198.773 336.648C194.859 338.556 190.838 339.568 186.625 340.625C185.8 340.842 184.975 341.058 184.125 341.281C179.435 342.487 174.829 343.527 170 344C168.586 344.247 168.586 344.247 167.143 344.499C164.064 344.852 161.921 345.071 159 344C157.582 339.878 158.116 335.733 158.438 331.438C158.991 325.154 158.991 325.154 158 319C155.464 318.189 153.663 318.748 151.078 319.323C147.763 320.052 144.767 320.18 141.375 320.203C140.185 320.216 138.996 320.228 137.77 320.241C126.135 320.269 114.708 319.962 103.125 318.688C101.441 318.511 101.441 318.511 99.7227 318.331C98.703 318.205 97.6834 318.079 96.6328 317.949C95.7345 317.839 94.8362 317.729 93.9106 317.616C93.2801 317.413 92.6496 317.209 92 317C92 316.01 92 315.02 92 314C94.125 313.672 94.125 313.672 97 313.75C97.9281 313.765 98.8562 313.781 99.8125 313.797C102.113 313.943 104.407 314.191 106.691 314.502C110.84 315.029 114.958 315.161 119.137 315.168C119.89 315.172 120.643 315.176 121.42 315.181C123.842 315.191 126.265 315.191 128.688 315.188C129.93 315.187 129.93 315.187 131.197 315.186C156.475 315.136 184.83 300 206 300Z" fill="#1B7FF4"/>
<path d="M364.75 226.562C368.992 229.272 372.322 232.321 373.59 237.332C374.049 244.437 371.146 249.415 367 255C366.34 255.66 365.68 256.32 365 257C364.707 258.902 364.707 258.902 364.77 261.07C364.772 262.292 364.772 262.292 364.775 263.539C364.788 264.392 364.8 265.246 364.812 266.125C364.813 266.955 364.814 267.785 364.814 268.641C364.851 273.832 365.033 278.892 366 284C368.749 285.792 368.749 285.792 372 287C374.875 288.937 374.875 288.937 377 292C377.91 297.632 377.766 302.384 375.312 307.562C371.557 311.521 368.971 313.158 363.5 313.312C358.486 313.113 355.441 311.896 351.188 309.25C347.597 303.916 348.082 298.222 349 292C350.341 289.012 351.36 288.1 354 286C355.096 285.894 355.096 285.894 356.215 285.785C356.804 285.526 357.393 285.267 358 285C358.07 281.91 358.07 281.91 357.312 278.25C357.079 276.886 356.85 275.521 356.625 274.156C356.51 273.464 356.396 272.772 356.277 272.058C355.86 268.963 355.869 265.87 355.812 262.75C355.691 259.63 355.691 259.63 355 257C351.799 254.902 351.799 254.902 348 254C344.008 250.333 341.838 246.767 341.562 241.375C341.6 236.248 343.117 233.512 346.297 229.594C351.496 224.728 358.113 225.205 364.75 226.562Z" fill="#C1D1FC"/>
<path d="M353 146C353.587 146.157 354.173 146.315 354.777 146.477C357.299 147.07 359.012 146.736 361.562 146.375C365.958 146.31 368.106 147.492 371.275 150.528C373.602 152.953 375.809 155.45 378 158C378.719 158.806 379.439 159.611 380.18 160.441C381.353 161.763 382.515 163.095 383.66 164.441C384.721 165.675 385.85 166.85 387 168C386.682 169.832 386.682 169.832 386 172C385.894 172.766 385.787 173.533 385.678 174.322C384.931 177.344 384.259 178.819 382 181C375.862 182.377 369.763 182.17 363.5 182.062C361.718 182.061 359.936 182.063 358.153 182.069C354.667 182.074 351.183 182.057 347.697 182.021C343.817 181.989 339.956 182.074 336.078 182.242C335.148 182.276 334.218 182.309 333.26 182.344C331.638 182.404 330.017 182.482 328.396 182.58C326.297 182.621 326.297 182.621 323 182C320.891 179.223 320.891 179.223 320 176C321.164 172.788 322.821 171.044 325.457 168.934C326.152 168.371 326.847 167.807 327.562 167.227C328.305 166.637 329.048 166.046 329.812 165.438C331.351 164.193 332.889 162.949 334.426 161.703C335.194 161.084 335.961 160.464 336.752 159.826C340.038 157.156 343.274 154.429 346.5 151.688C347.045 151.226 347.59 150.764 348.152 150.289C350.635 148.21 350.635 148.21 353 146Z" fill="#063595"/>
<path d="M396.596 202.789C399.683 203.204 402.169 203.684 405 205C407.073 208.158 407.44 211.426 407.938 215.125C408.294 217.132 408.652 219.138 409.012 221.145C409.173 222.138 409.335 223.131 409.502 224.155C410.194 228.107 411.207 231.942 412.25 235.812C412.837 238.208 413.42 240.603 414 243C414.248 243.902 414.495 244.805 414.75 245.734C415.25 248.062 415.25 248.062 415 252C412.779 255.041 410.39 257.334 407 259C402.995 258.535 399.757 257.093 396.149 255.348C394.501 254.554 394.501 254.554 392.82 253.744C391.683 253.189 390.546 252.634 389.375 252.062C388.23 251.511 387.086 250.96 385.906 250.393C374.265 244.757 374.265 244.757 373.305 242.012C373.163 241.245 373.021 240.478 372.875 239.688C372.728 238.928 372.581 238.169 372.43 237.387C372.288 236.599 372.146 235.811 372 235C371.716 234.205 371.433 233.409 371.141 232.59C370.96 229.259 372.218 227.932 374.367 225.496C374.865 224.961 375.362 224.426 375.875 223.875C376.894 222.73 377.913 221.584 378.93 220.438C379.445 219.865 379.96 219.293 380.491 218.703C382.745 216.159 384.867 213.522 387 210.875C388.32 209.239 389.652 207.612 391 206C391.42 205.455 391.84 204.91 392.273 204.349C394 203 394 203 396.596 202.789Z" fill="#062D8A"/>
<path d="M194.078 146.594C198.693 149.971 202.894 154.636 205 160C205.903 167.351 205.538 173.958 201 180C195.638 185.362 190.204 188.109 182.625 188.5C176.788 188.316 172.543 186.658 168 183C162.154 176.609 161.64 170.825 161.727 162.453C162.223 156.188 164.827 152.913 169.375 148.688C176.703 142.865 185.886 142.006 194.078 146.594Z" fill="#41BDFB"/>
<path d="M313.66 168.367C318.229 171.556 321.247 175.741 323 181C323.717 188.884 322.58 194.038 318.25 200.688C313.903 205.155 310.249 207.233 304.062 207.375C298.109 207.095 292.965 206.652 288.25 202.688C287.507 201.801 286.765 200.914 286 200C285.257 199.154 284.515 198.309 283.75 197.438C280.253 192.567 280.388 186.807 281 181C282.818 174.779 286.668 170.547 292 167C299.807 163.346 306.33 164.414 313.66 168.367Z" fill="#EDF9FC"/>
<path d="M317 205C319.25 206.437 319.25 206.437 321 208C321 208.66 321 209.32 321 210C321.866 210.402 321.866 210.402 322.75 210.812C325.657 212.347 326.978 214.426 329 217C330.65 218.354 332.318 219.687 334 221C335.688 222.645 337.354 224.313 339 226C339.969 226.681 340.939 227.361 341.938 228.062C344.226 231.321 344.6 232.642 344.625 236.562C343.89 240.27 342.855 242.316 339.887 244.692C333.867 248.637 327.47 251.867 321 255C320.286 255.383 319.573 255.767 318.837 256.162C316.18 257.374 314.777 256.839 312 256C310.8 255.688 309.6 255.376 308.363 255.055C305 253 305 253 304.417 251.08C304.265 248.46 304.344 245.932 304.5 243.312C304.534 242.352 304.568 241.392 304.603 240.403C304.679 238.346 304.769 236.29 304.871 234.234C305.003 230.922 305.016 227.627 305.004 224.312C305.022 222.146 305.041 219.979 305.063 217.812C305.051 216.78 305.039 215.747 305.027 214.683C305.094 211.943 305.19 209.619 306 207C309.149 204.269 313.145 203.139 317 205Z" fill="#052B87"/>
<path d="M166 189C169.32 189.375 171.642 190.654 174 193C173.607 196.614 172.029 198.945 170.312 202.125C168.812 204.78 168.812 204.78 169.188 207C169.456 207.66 169.724 208.32 170 209C170.237 209.986 170.474 210.972 170.718 211.988C171.705 215.147 171.705 215.147 174.368 216.36C175.342 216.636 176.316 216.911 177.32 217.195C178.402 217.508 179.484 217.82 180.599 218.142C186.003 219.505 191.419 220.739 196.875 221.875C205.837 223.801 214.723 225.883 223.562 228.312C224.49 228.567 225.417 228.821 226.373 229.083C232.701 230.851 232.701 230.851 235 232C235.767 235.031 235.515 236.804 235 240C227.965 239.874 221.093 237.596 214.328 235.805C211.866 235.165 209.404 234.526 206.941 233.887C203.08 232.878 199.22 231.867 195.361 230.851C191.623 229.869 187.882 228.899 184.141 227.93C182.983 227.621 181.826 227.313 180.634 226.996C179.559 226.718 178.484 226.441 177.376 226.156C176.432 225.908 175.488 225.66 174.515 225.405C171.898 224.984 170.456 225.056 168 226C167.154 226.681 166.309 227.361 165.438 228.062C160.6 230.789 156.436 230.665 151 230C146.739 228.459 144.805 225.92 142.73 221.891C141.283 218.145 141.317 214.918 142.66 211.145C144.664 207.076 147.114 204.705 151.125 202.621C153 202 153 202 156.812 202.125C157.864 202.084 158.916 202.043 160 202C161.327 199.361 161.327 199.361 162 196C163.026 192.989 163.903 191.539 166 189Z" fill="#2265F6"/>
<path d="M323.25 125.125C326.127 126.04 328.94 127.082 331.75 128.184C334.202 129.073 336.672 129.752 339.188 130.438C343.175 131.625 346.223 132.745 349 136C349.012 138.273 349.012 138.273 348 141C345.918 143.1 343.916 144.91 341.625 146.75C340.995 147.272 340.366 147.794 339.717 148.333C337.821 149.9 335.912 151.451 334 153C332.956 153.856 331.913 154.713 330.871 155.57C329.054 157.062 327.228 158.544 325.395 160.016C323.24 161.801 321.26 163.682 319.25 165.625C316.494 168.036 316.173 168.003 312.188 167.938C309 167 309 167 307 166C306.819 163.275 306.765 160.662 306.813 157.938C306.826 157.135 306.839 156.332 306.852 155.505C306.883 153.834 306.919 152.162 306.96 150.491C306.998 148.119 306.964 145.758 306.914 143.387C306.897 139.473 307.035 135.819 308 132C310.741 129.475 313.443 128.853 317 128C317.743 127.402 318.485 126.804 319.25 126.188C321 125 321 125 323.25 125.125Z" fill="#073594"/>
<path d="M58 296C60.8451 296.824 63.5949 297.841 66.3516 298.922C85.7848 306.374 106.321 307.349 126.913 307.261C129.865 307.25 132.817 307.261 135.77 307.273C156.7 307.29 178.593 306.462 198.02 297.832C200.024 296.99 201.844 296.308 204 296C204.625 298.125 204.625 298.125 204 301C192.699 313.523 167.305 314.944 151.427 315.855C130.588 316.737 109.529 317.119 89 313C88.2124 312.845 87.4248 312.69 86.6133 312.53C62.9487 307.733 62.9487 307.733 57 300C57 297 57 297 58 296Z" fill="#052069"/>
<path d="M317 282C323.431 283.348 329.092 286.425 334.885 289.453C338.174 291.161 341.303 292.467 344.875 293.438C345.906 293.953 346.938 294.469 348 295C348.842 299.937 348.842 299.937 348 303C345.478 305.11 343.632 306.295 340.738 307.684C339.996 308.069 339.253 308.455 338.487 308.853C336.11 310.078 333.712 311.257 331.313 312.438C329.715 313.257 328.12 314.079 326.525 314.904C313.162 321.733 313.162 321.733 309 322C308.01 321.34 307.02 320.68 306 320C305.252 316.06 305.211 312.087 305.085 308.082C304.997 305.934 304.834 303.799 304.664 301.656C304.413 297.648 304.341 293.976 305 290C306.919 287.948 308.309 287.377 310.988 286.605C313.279 286.125 313.279 286.125 314.938 283.562C315.618 283.047 316.299 282.531 317 282Z" fill="#05267C"/>
<path d="M97.6836 159.195C103.264 158.976 107.835 159.147 112.25 162.813C114.725 165.294 115.923 167.385 116.094 170.99C116.086 171.732 116.078 172.474 116.07 173.238C116.081 174.059 116.091 174.879 116.102 175.725C116.117 177.438 116.11 179.152 116.078 180.865C116.154 185.754 116.154 185.754 118.583 189.837C120.454 191.43 120.454 191.43 122.408 192.735C124 194 124 194 124.938 197C123.816 200.589 123.091 200.713 119.984 202.563C117.499 204.357 116.209 205.294 115.33 208.262C115.168 210.868 115.188 213.392 115.312 216C115.652 225.823 115.652 225.823 112.793 229.5C107.792 233.977 102.909 234.78 96.3086 234.727C95.5468 234.487 94.7849 234.247 94 234C92.7403 231.346 92.751 229.303 92.7344 226.383C93.3609 225.203 93.3609 225.203 94 224C96.0654 223.561 96.0654 223.561 98.5312 223.262C100.966 222.946 100.966 222.946 103 222C104.242 218.948 103.938 215.935 103.75 212.688C103.385 203.718 103.385 203.718 106.547 200.027C107.356 199.358 108.166 198.689 109 198C108.39 195.409 107.439 194.362 105.405 192.686C103.484 190.381 103.772 189.099 104.023 186.148C104.074 185.215 104.124 184.282 104.176 183.32C104.309 181.347 104.466 179.376 104.645 177.406C104.831 173.633 104.831 173.633 104 170C101.613 169.145 99.6146 169.137 97.0874 169.144C96.0541 169.073 96.0541 169.073 95 169C93.3264 166.411 93.5729 165.01 93.8477 161.992C95 160 95 160 97.6836 159.195Z" fill="#63BBF8"/>
<path d="M72 159C73.2559 161.689 73.249 163.764 73.2656 166.715C72.848 167.469 72.4303 168.223 72 169C69.9346 169.179 69.9346 169.179 67.4688 169.176C65.0445 169.205 65.0445 169.205 63 170C61.7139 173.341 62.0671 176.719 62.25 180.25C62.6157 190.287 62.6157 190.287 59.4219 193.984C58.6227 194.65 57.8234 195.315 57 196C57.7203 199.081 57.7203 199.081 60.0195 200.582C63.0592 204.293 62.6356 208.026 62.6875 212.688C62.7294 214.421 62.7748 216.154 62.8242 217.887C62.8354 218.652 62.8466 219.417 62.8582 220.206C62.8065 222.023 62.8065 222.023 64 223C64.9146 222.983 64.9146 222.983 65.8477 222.965C68.2421 222.935 69.8277 222.966 72 224C73.1113 226.783 73.2055 228.815 72.9883 231.797C72.6621 232.524 72.336 233.251 72 234C67.1152 235.648 62.3053 234.451 57.5625 232.813C54.5599 230.689 52.9461 229.151 51 226C50.567 222.706 50.6868 219.442 50.75 216.125C50.8184 209.34 50.8184 209.34 48.168 203.309C46.0149 201.532 46.0149 201.532 43.7148 200.316C42 199 42 199 41.5078 196.5C42 194 42 194 43.7148 192.684C44.4483 192.272 45.1818 191.861 45.9375 191.438C48.4557 189.465 49.8144 188.018 50.3965 184.824C50.6514 181.3 50.7128 177.817 50.6111 174.285C50.5499 170.019 50.5176 166.964 53.207 163.504C58.3128 158.927 65.2569 156.866 72 159Z" fill="#7292F8"/>
<path d="M345.063 251.125C347.314 252.142 349.033 253.509 351 255C351.841 255.187 352.681 255.374 353.547 255.566C354.761 256.276 354.761 256.276 356 257C356.731 259.986 357.113 262.471 357.313 265.5C357.414 266.719 357.414 266.719 357.518 267.963C357.703 270.308 357.853 272.653 358 275C358.095 276.092 358.191 277.184 358.289 278.309C358.422 280.663 358.486 282.694 358 285C355.875 287.187 355.875 287.187 353 288C348.473 287.544 344.869 286.231 340.762 284.312C339.613 283.779 338.463 283.245 337.279 282.695C335.501 281.856 335.501 281.856 333.688 281C332.471 280.434 331.254 279.869 330.037 279.305C321.158 275.158 321.158 275.158 320 274C319.333 270.537 319.217 267.448 320 264C322.483 261.363 325.418 260.047 328.688 258.562C329.504 258.156 330.321 257.749 331.162 257.33C332.737 256.546 334.318 255.777 335.908 255.024C338.185 253.948 338.185 253.948 340.953 252.207C343 251 343 251 345.063 251.125Z" fill="#072B85"/>
<path d="M370.777 251.988C374.492 253.154 378.027 254.571 381.563 256.188C382.97 256.83 384.377 257.472 385.785 258.113C386.487 258.434 387.188 258.754 387.911 259.084C389.898 259.955 391.898 260.731 393.934 261.48C402.293 264.749 402.293 264.749 404.223 268.164C404.647 271.079 404.43 272.416 403 275C399.335 277.792 395.264 279.317 391 281C389.751 281.548 388.505 282.103 387.262 282.664C374.131 288.533 374.131 288.533 370.016 287.504C369.433 287.193 368.85 286.883 368.25 286.562C367.361 286.131 367.361 286.131 366.453 285.691C364.053 282.898 364.201 279.535 364 276C363.956 275.224 363.911 274.448 363.866 273.649C363.76 271.203 363.717 268.761 363.688 266.312C363.659 265.484 363.63 264.656 363.6 263.803C363.558 259.8 363.759 257.462 365.645 253.855C368 252 368 252 370.777 251.988Z" fill="#052983"/>
<path d="M95 490C96.6164 489.898 98.2375 489.874 99.857 489.874C101.482 489.87 101.482 489.87 103.14 489.866C104.35 489.868 105.56 489.871 106.807 489.873C108.077 489.871 109.347 489.87 110.655 489.868C114.201 489.864 117.747 489.866 121.293 489.869C125.109 489.871 128.925 489.868 132.741 489.865C140.225 489.861 147.708 489.862 155.192 489.865C161.271 489.867 167.35 489.867 173.429 489.866C174.292 489.866 175.155 489.866 176.044 489.866C177.797 489.865 179.55 489.865 181.303 489.865C197.766 489.862 214.229 489.865 230.692 489.871C244.837 489.875 258.982 489.874 273.126 489.87C289.528 489.864 305.929 489.862 322.331 489.865C324.078 489.866 325.825 489.866 327.571 489.866C328.431 489.866 329.291 489.866 330.176 489.867C336.252 489.867 342.328 489.866 348.404 489.864C355.802 489.861 363.201 489.862 370.599 489.867C374.378 489.87 378.157 489.871 381.936 489.867C386.022 489.864 390.108 489.868 394.193 489.873C396.008 489.87 396.008 489.87 397.86 489.866C398.944 489.869 400.027 489.871 401.143 489.874C402.088 489.874 403.032 489.874 404.006 489.875C404.664 489.916 405.322 489.957 406 490C406 490.33 406 490.66 406 491C391.914 495.104 377.234 494.425 362.719 494.388C359.982 494.391 357.245 494.397 354.509 494.404C347.882 494.417 341.255 494.415 334.628 494.406C329.237 494.399 323.846 494.398 318.455 494.401C317.684 494.402 316.914 494.402 316.12 494.403C314.554 494.404 312.988 494.405 311.422 494.406C296.778 494.414 282.134 494.404 267.49 494.388C254.954 494.375 242.418 494.377 229.882 494.391C215.284 494.407 200.687 494.413 186.09 494.404C184.53 494.403 182.971 494.402 181.411 494.401C180.26 494.401 180.26 494.401 179.086 494.4C173.708 494.397 168.33 494.402 162.952 494.409C156.389 494.417 149.826 494.415 143.263 494.399C139.921 494.391 136.58 494.39 133.238 494.398C105.876 494.46 105.876 494.46 95 491C95 490.67 95 490.34 95 490Z" fill="#050E2B"/>
<path d="M366 123C368.914 124.353 370.579 125.785 373 128C374.354 132.063 374.531 135.752 374 140C371.554 144.327 368.622 146.278 364 148C358.044 148.411 358.044 148.411 355.074 147.242C352.839 146.747 352.839 146.747 350.809 148.555C350.026 149.32 349.244 150.086 348.438 150.875C344.065 155.017 339.586 158.882 334.867 162.625C332.765 164.366 330.83 166.102 328.883 168C326.079 170.666 323.413 173.118 320 175C317.002 174.318 315.774 173.212 313.621 171.055C313.416 170.377 313.211 169.699 313 169C315.039 167.008 315.039 167.008 318 165C324.816 159.503 331.515 153.887 338.14 148.162C338.7 147.679 339.259 147.197 339.836 146.699C340.37 146.235 340.904 145.771 341.454 145.293C342.878 144.102 344.378 143.003 345.883 141.914C348.153 140.218 348.153 140.218 348.531 137.887C348.521 137.161 348.511 136.435 348.5 135.687C348.786 130.446 350.619 127.959 354 124C357.737 122.132 361.932 122.447 366 123Z" fill="#A9D2FB"/>
<path d="M205 264C205.33 264 205.66 264 206 264C206.353 268.553 206.326 273.123 206.375 277.688C206.412 278.981 206.45 280.275 206.488 281.607C206.5 282.855 206.511 284.102 206.523 285.387C206.543 286.534 206.563 287.68 206.583 288.862C205.824 292.944 204.141 294.383 201 297C194.674 300.779 184.437 305.248 177 304C176.464 301.537 176.464 301.537 176.582 298.129C176.607 296.915 176.632 295.702 176.658 294.451C176.709 293.168 176.76 291.885 176.812 290.562C176.89 288.043 176.959 285.524 177.02 283.004C177.062 281.878 177.104 280.752 177.148 279.592C177.099 278.737 177.05 277.881 177 277C176.34 276.67 175.68 276.34 175 276C178.794 274.916 182.606 273.987 186.445 273.08C193.53 271.325 199.824 269.305 205 264Z" fill="#1E87F8"/>
<path d="M59 256C59.66 256.33 60.32 256.66 61 257C60.3606 257.598 59.7212 258.196 59.0625 258.812C56.7705 260.735 56.7705 260.735 57.0273 262.945C59.432 268.025 67.6412 270.129 72.6562 271.98C74.1184 272.461 75.5866 272.923 77.0625 273.359C77.7019 273.571 78.3413 273.782 79 274C79.6832 274.211 80.3664 274.423 81.0703 274.641C83 276 83 276 83.6445 278.829C83.7922 281.961 83.9241 285.088 83.9609 288.224C84.0002 290.262 84.1242 292.285 84.25 294.32C84.3558 300.788 84.3558 300.788 83 304C76.849 305.25 69.889 301.993 64.5 299.188C63.5409 298.707 62.5819 298.226 61.5938 297.73C58.599 295.732 56.9854 294.011 55 291C54.4824 287.65 54.4824 287.65 54.4688 283.871C54.4649 283.2 54.4611 282.528 54.4572 281.836C54.4544 280.423 54.4617 279.011 54.4785 277.598C54.5 275.44 54.4787 273.285 54.4531 271.127C54.4558 269.75 54.4609 268.373 54.4688 266.996C54.4733 265.75 54.4778 264.504 54.4824 263.22C55 260 55 260 56.9082 257.5C57.9436 256.758 57.9436 256.758 59 256Z" fill="#0B46C9"/>
<path d="M56 299C57.461 299.977 57.461 299.977 59.375 301.625C63.5856 304.993 67.7258 306.476 72.875 307.945C73.5763 308.293 74.2775 308.641 75 309C75 310.32 75 311.64 75 313C77.9369 313.753 77.9369 313.753 81 314C83.7245 316.724 82.4313 324.462 82.5 328.125C82.5542 329.369 82.6083 330.613 82.6641 331.895C82.7568 337.913 82.7568 337.913 82 341C78.7855 341.382 77.8513 341.159 75 340C73.7181 339.714 73.7181 339.714 72.4102 339.422C65.5623 337.462 59.0672 335.101 55 329C54.7571 326.121 54.7571 326.121 54.7696 322.652C54.7715 321.408 54.7734 320.163 54.7754 318.881C54.7877 317.58 54.7999 316.278 54.8125 314.938C54.8132 313.632 54.8138 312.327 54.8145 310.982C54.8597 301.281 54.8597 301.281 56 299Z" fill="#083EC2"/>
<path d="M364.75 226.562C369.01 229.284 372.384 232.333 373.555 237.402C373.844 242.921 372.595 246.726 369.582 251.308C366.799 254.283 364.15 255.798 360.133 256.504C351.01 256.682 351.01 256.682 346.875 253.25C343.283 249.712 341.693 246.295 341.5 241.25C341.589 236.214 343.172 233.444 346.297 229.594C351.496 224.728 358.113 225.205 364.75 226.562Z" fill="#C6DAFC"/>
<path d="M55 339C56.8284 341.06 56.8284 341.06 59 344C62.1816 345.776 62.1816 345.776 65.75 347.125C67.5057 347.84 67.5057 347.84 69.2969 348.57C72.6968 350.016 72.6968 350.016 75.2012 350.398C77.6447 350.939 79.0895 351.366 81 353C82.2455 357.251 82.1161 361.351 82 365.75C82.0309 366.937 82.0619 368.124 82.0938 369.348C82.065 372.459 82.0175 375.056 81 378C77.4664 378.357 76.1862 378.155 73 377C72.0177 376.737 71.0355 376.474 70.0234 376.203C57.9245 371.849 57.9245 371.849 55 366C54.7051 361.359 54.7222 356.711 54.6875 352.062C54.6582 350.729 54.6289 349.395 54.5996 348.061C54.5912 346.835 54.5829 345.61 54.5742 344.348C54.5596 343.203 54.5451 342.058 54.53 340.879C54.6851 340.259 54.8402 339.639 55 339Z" fill="#0332BA"/>
<path d="M196 75C196.33 75 196.66 75 197 75C197.558 78.2448 197.971 81.5018 198.402 84.7656C198.77 87.9786 198.77 87.9786 200.484 90.1719C200.655 90.7752 200.825 91.3784 201 92C198.754 93.6644 196.804 94.7987 194.312 96C193.614 96.3539 192.915 96.7079 192.194 97.0725C187.609 99.3489 182.986 101.187 178.133 102.816C171.331 105.386 164.841 108.743 158.294 111.897C155.018 113.472 151.731 115.023 148.438 116.562C146.92 117.276 146.92 117.276 145.371 118.004C143 119 143 119 141 119C138.561 116.282 136.712 113.617 136 110C138.658 107.536 142.595 107.011 146 106C148.596 104.97 151.14 103.831 153.688 102.688C154.364 102.39 155.04 102.092 155.736 101.786C167.927 96.6003 167.927 96.6003 179.609 90.4297C182.039 88.9764 184.429 87.9088 187.062 86.875C187.899 86.5424 188.736 86.2098 189.598 85.8672C192 85 192 85 194.297 84.668C194.859 84.4475 195.421 84.2271 196 84C196.45 81.8713 196.45 81.8713 196.188 79.4375C196.102 77.9595 196.033 76.4801 196 75Z" fill="#44BCF0"/>
<path d="M177 277C177.631 279.668 177.631 279.668 177.629 283.187C177.632 285.071 177.632 285.071 177.635 286.992C177.622 287.649 177.61 288.306 177.597 288.983C177.563 290.993 177.576 292.998 177.596 295.008C177.54 302.301 177.54 302.301 177 305C175.194 305.821 175.194 305.821 173 306C171.788 306.345 170.577 306.691 169.328 307.047C164.767 307.98 162.152 308.376 158 306C156.082 298.151 157.317 289.545 158.103 281.592C158.069 280.737 158.035 279.881 158 279C157.01 278.67 156.02 278.34 155 278C157.728 277.636 160.457 277.283 163.188 276.937C164.341 276.782 164.341 276.782 165.518 276.623C166.268 276.529 167.019 276.436 167.793 276.34C168.822 276.206 168.822 276.206 169.872 276.07C172.562 275.981 174.477 275.994 177 277Z" fill="#44B2FC"/>
<path d="M383 180C383.785 183.16 384.047 185.888 383 189C379.53 190.533 375.859 190.158 372.125 190.062C370.991 190.063 369.858 190.064 368.69 190.064C366.181 190.063 363.671 190.045 361.162 190.012C357.461 189.98 353.774 190.086 350.075 190.225C346.946 190.34 343.817 190.422 340.687 190.498C339.141 190.541 337.596 190.596 336.05 190.663C327.253 191.022 327.253 191.022 323 190C321.786 188.212 321.786 188.212 321.566 186.023C322.006 183.823 322.006 183.823 323 182C325.892 181.071 327.583 180.976 330.562 181.062C332.362 181.045 334.161 181.026 335.961 181.008C337.561 181.012 337.561 181.012 339.194 181.017C343.791 180.997 348.382 180.875 352.977 180.742C354.753 180.691 356.53 180.64 358.306 180.59C359.637 180.551 359.637 180.551 360.995 180.512C365.354 180.391 369.714 180.286 374.074 180.184C374.859 180.165 375.643 180.146 376.452 180.127C381.85 180 381.85 180 383 180Z" fill="#9AA1F7"/>
<path d="M177 316C178.005 320.379 177.694 324.959 177.688 329.437C177.728 330.717 177.769 331.996 177.811 333.314C177.823 336.684 177.753 339.715 177 343C173.918 344.455 173.226 344.294 170 344C169.057 344.147 168.115 344.294 167.144 344.446C164.058 344.845 161.948 345.024 159 344C157.077 340.003 157.296 336.053 157.438 331.687C157.454 330.521 157.47 329.354 157.487 328.152C157.69 324.912 158.019 322.094 159 319C164.517 314.746 170.381 316 177 316Z" fill="#37A0FB"/>
<path d="M177 353C177.582 357.448 177.464 361.956 177.5 366.437C177.541 367.717 177.582 368.996 177.625 370.314C177.635 371.529 177.646 372.744 177.656 373.996C177.684 375.685 177.684 375.685 177.713 377.408C177.478 378.263 177.242 379.119 177 380C174.351 380.823 174.351 380.823 171 381C169.961 381.175 168.921 381.35 167.851 381.53C164.582 381.847 162.146 381.978 159 381C156.885 377.029 157.104 373.105 157.25 368.687C157.264 367.521 157.279 366.354 157.293 365.153C157.842 357.076 157.842 357.076 160.591 354.521C165.922 352.196 171.341 353 177 353Z" fill="#3690FC"/>
<path d="M204 184C208 187.553 211.411 191.682 214.875 195.75C215.402 196.368 215.93 196.985 216.473 197.622C220.457 202.311 224.29 207.091 228 212C228.579 212.732 229.158 213.464 229.754 214.219C230.309 214.93 230.865 215.642 231.438 216.375C232.178 217.315 232.178 217.315 232.934 218.273C234 220 234 220 234 223C230.561 224.273 227.487 223.96 224 223C220.03 219.866 217.054 215.997 214 212C213.109 210.873 212.217 209.746 211.324 208.621C209.592 206.42 207.89 204.201 206.215 201.957C204.902 200.204 203.568 198.465 202.191 196.762C200.75 194.938 200.75 194.938 199 192C199.5 189.812 199.5 189.812 201 188C201.433 187.154 201.866 186.309 202.312 185.438C202.869 184.963 203.426 184.489 204 184Z" fill="#2172F9"/>
<path d="M229 102C229.844 103.646 229.844 103.646 230.5 105.953C230.746 106.794 230.992 107.636 231.246 108.503C231.495 109.409 231.744 110.316 232 111.25C232.261 112.165 232.521 113.08 232.79 114.023C233.54 116.678 234.271 119.339 235 122C235.348 123.216 235.696 124.431 236.055 125.684C239.726 139.127 239.726 139.127 236.945 145.367C234.653 149.286 234.653 149.286 233 151C232.34 150.67 231.68 150.34 231 150C230.112 147.147 229.339 144.334 228.625 141.438C228.408 140.583 228.191 139.728 227.968 138.848C227.521 137.085 227.078 135.322 226.639 133.558C226.056 131.224 225.459 128.895 224.855 126.566C223.862 122.721 222.93 118.862 222 115C221.702 113.889 221.404 112.778 221.098 111.633C219.894 106.621 219.894 106.621 220 104C223.203 101.989 225.271 102 229 102Z" fill="#3389F7"/>
<path d="M204 101C207.32 100.688 210.236 101.072 213 103C213 107.818 210.087 112.763 208.188 117.125C205.531 123.316 202.979 129.496 200.789 135.871C199.987 138.035 199.21 140.032 198 142C195.625 141.813 195.625 141.813 193 141C192.216 140.959 191.433 140.918 190.625 140.875C189.821 140.442 189.821 140.442 189 140C188.85 133.225 192.342 127.082 195 121C195.857 118.918 196.711 116.835 197.563 114.75C197.982 113.773 198.4 112.796 198.832 111.789C199.575 110.015 200.266 108.219 200.887 106.398C201.75 104.125 201.75 104.125 204 101Z" fill="#3395F8"/>
<path d="M295 206C298.87 205.745 302.313 205.702 306 207C307.617 210.463 307.067 213.952 306.75 217.687C306.697 218.753 306.644 219.82 306.59 220.918C306.477 223.153 306.343 225.386 306.189 227.619C306.004 230.921 305.981 234.182 306.016 237.488C306.011 239.492 306.006 241.496 306 243.5C306.02 244.455 306.041 245.409 306.062 246.393C306.041 247.264 306.021 248.134 306 249.031C306 249.8 306 250.569 306 251.361C305 253 305 253 303.177 253.594C300.759 253.903 299.256 253.949 297 253C295.737 249.751 296.126 246.407 296.289 242.973C296.313 241.445 296.313 241.445 296.338 239.886C296.396 236.609 296.509 233.337 296.625 230.062C296.71 226.792 296.784 223.521 296.848 220.25C296.892 218.208 296.949 216.167 297.021 214.127C297.06 212.745 297.06 212.745 297.1 211.336C297.129 210.521 297.157 209.706 297.187 208.866C297.125 208.251 297.063 207.635 297 207C296.34 206.67 295.68 206.34 295 206Z" fill="#85B3F9"/>
<path d="M349 138C349.66 138.99 350.32 139.98 351 141C351.632 141.789 352.263 142.578 352.914 143.391C353.452 144.682 353.452 144.682 354 146C352.273 148.359 352.273 148.359 349.375 150.75C348.864 151.181 348.354 151.612 347.828 152.057C346.235 153.393 344.62 154.697 343 156C342.086 156.758 341.172 157.516 340.23 158.297C338.446 159.77 336.647 161.225 334.832 162.66C332.742 164.387 330.821 166.111 328.887 167.996C326.082 170.664 323.414 173.117 320 175C317.002 174.318 315.774 173.212 313.621 171.055C313.416 170.377 313.211 169.699 313 169C315.039 167.008 315.039 167.008 318 165C324.816 159.503 331.515 153.887 338.14 148.162C340.676 145.974 343.212 143.834 345.852 141.77C348.08 140.178 348.08 140.178 349 138Z" fill="#5E82F5"/>
<path d="M320 196C321.775 197.603 323.369 199.254 325 201C327.905 203.97 330.829 206.92 333.75 209.875C334.511 210.652 335.271 211.43 336.055 212.23C340.609 216.823 345.226 220.854 350.527 224.57C351.256 225.278 351.256 225.278 352 226C350.25 228.25 350.25 228.25 347 230C346.497 230.593 345.995 231.186 345.477 231.797C344.989 232.194 344.502 232.591 344 233C342.57 231.938 342.57 231.938 341.125 230C340.6 229.331 340.076 228.662 339.535 227.973C338.775 226.996 338.775 226.996 338 226C335.338 223.202 332.594 220.647 329.625 218.188C326.255 215.353 323.474 212.198 320.664 208.816C318.9 206.748 318.9 206.748 315.75 204.812C315.173 204.214 314.595 203.616 314 203C316.125 200.375 316.125 200.375 319 198C319.33 197.34 319.66 196.68 320 196Z" fill="#4462F3"/>
<path d="M373 238C373.33 238 373.66 238 374 238C373.917 238.949 373.835 239.897 373.75 240.875C373.874 242.422 373.874 242.422 374 244C376.228 245.111 376.228 245.111 379 246C383.232 247.95 387.425 249.981 391.625 252C393.342 252.82 393.342 252.82 395.094 253.656C396.189 254.182 397.285 254.708 398.414 255.25C399.914 255.969 399.914 255.969 401.444 256.703C404 258 404 258 407 260C405.5 263.188 405.5 263.188 403 266C398.964 265.719 395.565 264.036 391.93 262.348C390.786 261.818 389.643 261.289 388.465 260.744C387.28 260.189 386.096 259.634 384.875 259.062C383.683 258.511 382.49 257.96 381.262 257.393C372.427 253.285 372.427 253.285 369 251C369.943 248.973 370.955 246.977 372 245C372.375 242.673 372.719 240.34 373 238Z" fill="#3758F0"/>
<path d="M386 196C388.812 198.125 388.812 198.125 390.395 199.57C392.151 201.201 392.151 201.201 395 203C393.501 205.031 392.027 206.667 390.25 208.438C389.21 209.52 388.172 210.605 387.137 211.691C386.609 212.242 386.081 212.793 385.537 213.36C383.271 215.778 381.162 218.311 379.062 220.875C378.337 221.761 377.611 222.646 376.863 223.559C375.279 225.634 374.007 227.66 372.75 229.938C372.173 230.618 371.595 231.299 371 232C368.5 230.5 368.5 230.5 366 228C365.134 227.67 364.267 227.34 363.375 227C362.921 226.67 362.468 226.34 362 226C363.658 224.655 365.326 223.325 367 222C368.441 220.351 369.835 218.66 371.188 216.938C373.64 213.858 376.104 210.84 378.805 207.977C379.265 207.488 379.725 207 380.198 206.496C381.501 205.127 382.815 203.768 384.129 202.41C386.409 199.982 386.409 199.982 386 196Z" fill="#7B99F5"/>
<path d="M239 155C240.891 158.241 241 160.192 241 164C238.219 165.012 238.219 165.012 234.5 165.688C233.217 165.925 231.935 166.162 230.613 166.406C229.421 166.602 228.228 166.798 227 167C226.21 167.134 225.42 167.268 224.605 167.406C222.746 167.679 220.872 167.841 219 168C218.181 168.111 217.363 168.222 216.519 168.336C212.242 168.721 212.242 168.721 210 168C208.936 162.927 208.936 162.927 210 160C212.805 158.295 215.363 157.622 218.59 157.148C219.457 157.02 220.324 156.891 221.217 156.758C222.115 156.632 223.012 156.505 223.937 156.375C225.278 156.174 225.278 156.174 226.646 155.969C235.284 154.712 235.284 154.712 239 155Z" fill="#2186F5"/>
<path d="M403 265C403.33 265 403.66 265 404 265C404.216 267.246 404.371 269.498 404.5 271.75C404.661 276.506 404.661 276.506 405.77 281.075C405.846 281.71 405.922 282.345 406 283C404.389 284.233 404.389 284.233 401.969 285.254C401.095 285.634 400.221 286.013 399.32 286.404C398.39 286.787 397.459 287.169 396.5 287.562C395.15 288.142 395.15 288.142 393.773 288.732C386.92 291.665 386.92 291.665 383.812 292.798C381.693 293.551 381.693 293.551 379 295C377.995 297.002 377.995 297.002 378.125 299.188C378.084 300.446 378.043 301.704 378 303C377.67 303 377.34 303 377 303C376.784 301.234 376.629 299.461 376.5 297.688C376.268 294.523 376.007 292.022 375 289C374.34 288.67 373.68 288.34 373 288C374.897 286.908 374.897 286.908 377.879 285.566C378.946 285.082 380.012 284.598 381.111 284.1C382.82 283.339 382.82 283.339 384.562 282.562C386.23 281.807 386.23 281.807 387.932 281.037C396.414 277.21 396.414 277.21 399.821 275.989C400.9 275.499 400.9 275.499 402 275C402.784 272.59 402.784 272.59 402.75 269.875C402.814 268.249 402.892 266.624 403 265Z" fill="#7289F4"/>
<path d="M299 130C303.29 128.66 306.802 129.651 311 131C310.01 131.33 309.02 131.66 308 132C307.668 135.129 307.668 135.129 307.875 138.938C307.896 140.383 307.914 141.828 307.93 143.274C307.965 145.694 308.002 148.115 308.044 150.536C308.07 153.047 308.041 155.552 308 158.063C308.019 158.866 308.038 159.67 308.058 160.498C308 162.723 308 162.723 307 166C301.795 166.25 301.795 166.25 299 165C298.015 162.004 297.782 160.276 297.797 157.211C297.78 156.433 297.763 155.655 297.745 154.854C297.722 153.208 297.72 151.562 297.737 149.916C297.75 147.372 297.656 144.846 297.555 142.305C297.488 137.911 297.532 134.174 299 130Z" fill="#557BF8"/>
<path d="M140 131C140.33 131.66 140.66 132.32 141 133C142.661 133.682 144.329 134.344 146 135C148.748 136.431 151.434 137.966 154.125 139.5C154.84 139.903 155.556 140.307 156.293 140.723C159.266 142.407 162.154 144.103 165 146C164.78 149.303 163.359 151.726 161 154C155.728 153.851 151.61 150.443 147.375 147.625C146.612 147.13 145.849 146.635 145.062 146.125C138.186 141.613 138.186 141.613 136 139C136.547 136.887 136.547 136.887 137.75 134.688C138.137 133.949 138.523 133.21 138.922 132.449C139.456 131.732 139.456 131.732 140 131Z" fill="#3499F8"/>
<path d="M372 141C373.763 142.613 375.37 144.259 377 146C378.048 147.045 379.1 148.085 380.156 149.121C381.271 150.227 382.385 151.332 383.5 152.438C384.056 152.985 384.611 153.532 385.184 154.096C388.677 157.568 392.102 161.008 395 165C392.725 167.069 391.116 168 388 168C387.67 168.66 387.34 169.32 387 170C385.758 168.867 385.758 168.867 384.125 166.875C380.935 163.085 377.665 159.396 374.312 155.75C373.849 155.243 373.386 154.736 372.909 154.214C370.838 151.958 368.774 149.796 366.5 147.742C366.005 147.167 365.51 146.592 365 146C367.688 144.375 367.688 144.375 371 143C371.33 142.34 371.66 141.68 372 141Z" fill="#688CF6"/>
<path d="M341 243C344.266 247.899 344.266 247.899 345 251C343.255 252.653 343.255 252.653 340.488 254.078C339.503 254.599 338.517 255.12 337.502 255.656C336.449 256.182 335.397 256.708 334.312 257.25C332.763 258.062 332.763 258.062 331.182 258.891C323.77 262.743 323.77 262.743 320 264C319.833 266.542 319.833 266.542 320 269C319.67 269 319.34 269 319 269C318.711 267.948 318.423 266.896 318.125 265.812C317.265 262.003 317.265 262.003 314.984 259.508C314.66 258.68 314.335 257.853 314 257C316.425 255.257 318.411 254.213 321.125 253.062C322.621 252.383 324.116 251.7 325.609 251.016C326.355 250.681 327.101 250.347 327.869 250.002C331.721 248.191 335.329 245.949 338.961 243.738C339.634 243.495 340.307 243.251 341 243Z" fill="#78AAF2"/>
<path d="M326 118C330.54 118.435 334.775 120.312 339 121.938C339.699 122.202 340.397 122.467 341.117 122.74C342.469 123.254 343.819 123.776 345.165 124.307C346.768 124.912 348.41 125.411 350.055 125.891C350.697 126.257 351.339 126.623 352 127C352.012 130.355 350.821 133.202 349 136C346.938 135.25 346.938 135.25 344 133C342.456 132.464 340.89 131.99 339.312 131.562C332.917 129.743 326.557 127.705 321 124C321.66 124 322.32 124 323 124C323.165 123.34 323.33 122.68 323.5 122C323.665 121.34 323.83 120.68 324 120C324.66 120 325.32 120 326 120C326 119.34 326 118.68 326 118Z" fill="#5A84F6"/>
<path d="M366 253C366.66 253.33 367.32 253.66 368 254C367.547 254.388 367.094 254.776 366.628 255.175C364.258 257.831 364.764 259.7 364.953 263.199C364.994 264.408 365.036 265.616 365.078 266.861C365.193 269.425 365.324 271.987 365.469 274.549C365.658 280.853 365.658 280.853 365 284C361.57 285.215 361.57 285.215 358 284C356.914 281.43 356.914 281.43 356.625 277.875C356.517 276.61 356.408 275.346 356.297 274.043C356.254 273.38 356.211 272.716 356.166 272.033C356 269.995 355.713 268.007 355.391 265.988C354.92 262.518 354.525 259.473 355 256C358.75 254.75 358.75 254.75 360.922 254.922C363.312 255.215 363.312 255.215 366 253Z" fill="#5674F8"/>
<path d="M56 337C57.755 338.397 59.5085 339.795 61.2578 341.199C67.9837 345.616 76.6725 347.631 84.5 349.125C85.655 349.414 86.81 349.702 88 350C87.67 350.99 87.34 351.98 87 353C86.326 353.112 85.652 353.224 84.9575 353.34C84.3115 353.558 83.6656 353.775 83 354C82.4735 356.52 82.4735 356.52 82.6797 359.566C82.7016 360.691 82.7235 361.816 82.7461 362.975C82.7886 364.159 82.8312 365.343 82.875 366.562C82.9434 368.897 83.0038 371.232 83.0547 373.566C83.0906 374.607 83.1266 375.648 83.1636 376.721C83.1096 377.473 83.0556 378.225 83 379C82.34 379 81.68 379 81 379C80.8398 376.661 80.8398 376.661 80.9375 373.418C80.9439 372.258 80.9504 371.099 80.957 369.904C80.9855 367.438 81.0452 364.971 81.1367 362.506C81.1253 359.082 81.0513 356.263 80 353C76.8651 350.892 73.6823 350.555 70 350C67.8036 349.067 65.6299 348.076 63.5 347C62.4997 346.505 61.4994 346.01 60.4688 345.5C58 344 58 344 56 341C56 339.68 56 338.36 56 337Z" fill="#084CCB"/>
<path d="M95 490C97.604 489.892 100.182 489.853 102.787 489.855C104.028 489.85 104.028 489.85 105.294 489.844C108.049 489.835 110.804 489.833 113.559 489.832C115.462 489.829 117.365 489.825 119.269 489.822C123.266 489.816 127.264 489.814 131.261 489.815C136.397 489.815 141.534 489.801 146.67 489.784C150.603 489.773 154.536 489.771 158.47 489.771C160.364 489.77 162.258 489.766 164.153 489.758C166.796 489.748 169.44 489.751 172.084 489.757C173.271 489.749 173.271 489.749 174.481 489.74C176.323 489.751 178.163 489.864 180 490C180.495 490.99 180.495 490.99 181 492C178.694 492.245 176.502 492.333 174.188 492.351C173.083 492.37 173.083 492.37 171.956 492.391C169.494 492.432 167.033 492.459 164.57 492.484C162.864 492.508 161.158 492.532 159.452 492.557C155.858 492.607 152.265 492.65 148.672 492.688C144.084 492.737 139.497 492.804 134.91 492.877C131.377 492.931 127.844 492.974 124.311 493.015C122.621 493.036 120.932 493.06 119.242 493.087C102.508 493.346 102.508 493.346 95 491C95 490.67 95 490.34 95 490Z" fill="#030F3E"/>
<path d="M295 206C298.911 205.663 302.307 205.558 306 207C307.571 210.966 307.073 214.87 306.75 219.062C306.709 220.203 306.668 221.343 306.625 222.518C306.502 225.365 306.372 228.174 306 231C305.67 231 305.34 231 305 231C305.302 222.995 305.302 222.995 305.566 219.398C305.737 216.678 305.737 216.678 305 213C301.5 211.958 301.5 211.958 298 213C297.5 216.5 297.5 216.5 298 220C297.67 220 297.34 220 297 220C296.967 216.643 297.07 213.297 297.16 209.941C297.107 208.971 297.054 208 297 207C296.34 206.67 295.68 206.34 295 206Z" fill="#6390E1"/>
<path d="M56 299C57.3633 299.684 57.3633 299.684 59.3125 301.438C63.5559 304.95 67.6172 306.445 72.875 307.945C73.5763 308.293 74.2775 308.641 75 309C75 310.32 75 311.64 75 313C67.6723 312.302 61.2565 309.256 56 304C55.7305 301.285 55.7305 301.285 56 299Z" fill="#0B54CD"/>
<path d="M196 75C196.33 75 196.66 75 197 75C197.558 78.2448 197.971 81.5018 198.402 84.7656C198.814 87.9475 198.814 87.9475 200.262 90.2812C200.505 90.8484 200.749 91.4156 201 92C197.875 94.25 197.875 94.25 194 95C191.678 92.696 190.593 90.1999 190 87C191.625 85 191.625 85 194 84C194.66 84 195.32 84 196 84C196.207 81.9394 196.207 81.9394 196.062 79.5C196.009 78.0008 195.979 76.5 196 75Z" fill="#33B3E2"/>
<path d="M296 290C298.642 288.891 300.185 289.311 302.938 289.988C305 291 305 291 306 293.562C305.67 294.367 305.34 295.171 305 296C303.832 295.792 302.664 295.585 301.461 295.371C300.319 295.579 299.177 295.786 298 296C297.013 300.134 297.402 304.283 297.625 308.5C297.704 310.844 297.779 313.187 297.852 315.531C297.901 316.579 297.951 317.626 298.003 318.705C298.002 319.462 298.001 320.22 298 321C297.67 321 297.34 321 297 321C296.462 316.581 296.231 312.144 296.003 307.7C295.918 306.189 295.814 304.678 295.693 303.169C294.991 294.325 294.991 294.325 296 290Z" fill="#5687DE"/>
<path d="M75 310C77.7734 310.157 80.277 310.506 83 311C84.5101 311.242 84.5101 311.242 86.0508 311.488C91.9652 312.473 91.9652 312.473 94 313C93.01 313.495 93.01 313.495 92 314C92 314.99 92 315.98 92 317C86.0869 317.547 80.1047 315.885 75 313C75 312.01 75 311.02 75 310Z" fill="#1061D8"/>
<path d="M366 253C366.66 253.33 367.32 253.66 368 254C367 255 366 256 365 257C364.917 257.701 364.835 258.402 364.75 259.125C364.502 259.744 364.255 260.363 364 261C362.824 261.083 361.649 261.165 360.437 261.25C359.303 261.498 358.169 261.745 357 262C356.35 264.798 356.724 267.1 357 270C356.67 270 356.34 270 356 270C355.074 265.31 354.502 260.767 355 256C358.75 254.75 358.75 254.75 360.922 254.922C363.312 255.215 363.312 255.215 366 253Z" fill="#4765EE"/>
<path d="M174 277C169.909 279.116 167.39 280.083 162.84 279.25C161.573 279.497 160.306 279.745 159 280C157.883 284.299 158.309 288.598 158.562 293C158.65 295.437 158.735 297.875 158.816 300.312C158.873 301.402 158.929 302.491 158.987 303.613C158.991 304.401 158.995 305.188 159 306C158.67 306 158.34 306 158 306C157.948 304.044 157.965 302.085 158.008 300.129C158.025 298.915 158.041 297.702 158.059 296.451C158.103 293.862 158.155 291.274 158.215 288.685C158.229 287.471 158.243 286.256 158.258 285.004C158.28 283.878 158.302 282.752 158.325 281.592C158.218 280.737 158.11 279.881 158 279C157.01 278.67 156.02 278.34 155 278C161.373 277.255 167.583 276.896 174 277Z" fill="#2C91FB"/>
<path d="M413 203C414.062 205.938 414.062 205.938 414 209C410.625 209.625 410.625 209.625 407 210C406.21 211.981 406.21 211.981 406 214C405.997 213.35 405.995 212.701 405.992 212.031C405.877 209.549 405.738 207.376 405 205C401.957 204.333 401.957 204.333 399 205C399 204.67 399 204.34 399 204C400.952 203.758 402.913 203.583 404.875 203.438C405.966 203.354 407.056 203.27 408.18 203.184C409.784 203.079 411.392 203 413 203Z" fill="#637FEF"/>
<path d="M299 130C303.068 129.728 306.987 130.352 311 131C310.01 131.33 309.02 131.66 308 132C307.802 134.762 307.767 137.31 307.875 140.063C307.951 142.711 307.994 145.35 308 148C307.67 148 307.34 148 307 148C307.113 145.999 307.241 143.999 307.375 142C307.521 138.753 307.521 138.753 307 136C303.542 135.5 303.542 135.5 300 136C298.312 132.938 298.312 132.938 299 130Z" fill="#4673E8"/>
<path d="M140 131C140.33 131.66 140.66 132.32 141 133C141.928 133.206 142.856 133.412 143.812 133.625C144.534 134.079 145.256 134.532 146 135C145.442 138.191 144.24 140.66 142 143C138.5 142.562 138.5 142.562 136 140C136.682 136.675 138.035 133.769 140 131Z" fill="#2485EA"/>
<path d="M386 196C388.812 198.125 388.812 198.125 390.395 199.57C392.151 201.201 392.151 201.201 395 203C392.875 205.25 392.875 205.25 390 207C389.01 206.34 388.02 205.68 387 205C385.845 205.248 384.69 205.495 383.5 205.75C382.263 205.874 382.263 205.874 381 206C383.125 203.312 383.125 203.312 384.695 201.738C386.4 199.829 386.4 199.829 386 196Z" fill="#5176EE"/>
<path d="M186 148C188.869 147.625 190.565 147.768 193.133 149.137C200.215 154.65 200.215 154.65 202 159C202.312 161.875 202.312 161.875 202 164C200 163 200 163 198.812 159.75C197.055 155.391 194.109 153.139 190 151C189.267 150.832 188.533 150.665 187.777 150.492C186.898 150.249 186.898 150.249 186 150C186 149.34 186 148.68 186 148Z" fill="#72DDFD"/>
<path d="M220 61C226.082 61.1067 229.106 62.312 233.555 66.4297C236.031 69.1197 236.972 70.6965 237.312 74.375C237.209 75.2412 237.106 76.1075 237 77C235.5 76.125 235.5 76.125 234 74C234 72.68 234 71.36 234 70C233.01 69.67 232.02 69.34 231 69C230.34 68.01 229.68 67.02 229 66C226.822 64.8143 226.822 64.8143 224.375 63.875C222.905 63.277 221.443 62.6592 220 62C220 61.67 220 61.34 220 61Z" fill="#92F7FB"/>
<path d="M143 110C143.704 111.987 144.371 113.988 145 116C145.66 116.33 146.32 116.66 147 117C144.438 118.625 144.438 118.625 141 119C138.624 116.367 136.801 113.475 136 110C138.786 108.594 140.02 109.007 143 110Z" fill="#2BAAE1"/>
<path d="M204 101C207.183 100.953 210.11 101.676 213 103C213.188 105.5 213.188 105.5 212 108C211.34 108.66 210.68 109.32 210 110C210 109.34 210 108.68 210 108C208.15 106.95 208.15 106.95 206 106C205.01 105.34 204.02 104.68 203 104C203.33 103.01 203.66 102.02 204 101Z" fill="#2081E8"/>
<path d="M229 102C230.188 104.438 230.188 104.438 230 107C226.125 107.625 226.125 107.625 223.883 107.664C223.261 107.775 222.64 107.886 222 108C221.67 108.99 221.34 109.98 221 111C220.125 107.625 220.125 107.625 220 104C223.17 102.343 225.439 102 229 102Z" fill="#246BE5"/>
<path d="M326 118C328 118.375 328 118.375 330 119C329.34 119 328.68 119 328 119C327.583 121.874 327.583 121.874 328 125C329.453 126.693 329.453 126.693 331 128C329.289 127.529 327.581 127.048 325.875 126.562C324.924 126.296 323.972 126.029 322.992 125.754C322.006 125.381 322.006 125.381 321 125C321.66 124.67 322.32 124.34 323 124C323.165 123.319 323.33 122.639 323.5 121.938C323.665 121.298 323.83 120.659 324 120C324.66 120 325.32 120 326 120C326 119.34 326 118.68 326 118Z" fill="#4971EC"/>
<path d="M320 274C323.375 274.438 323.375 274.438 326 276C325.01 276.33 324.02 276.66 323 277C323.062 278.217 323.124 279.434 323.188 280.688C323.126 281.781 323.064 282.874 323 284C319.812 283.938 319.812 283.938 317 282C317.091 278.872 318.025 276.424 320 274Z" fill="#7296F4"/>
<path d="M403 265C403.33 265 403.66 265 404 265C404.216 267.246 404.371 269.498 404.5 271.75C404.724 276.636 404.724 276.636 405.719 281.391C405.812 281.922 405.904 282.453 406 283C405.01 283.33 404.02 283.66 403 284C401.98 282.383 401.98 282.383 401.188 280.125C400.776 279.015 400.776 279.015 400.355 277.883C400.238 277.261 400.121 276.64 400 276C400.66 275.67 401.32 275.34 402 275C402.429 272.642 402.429 272.642 402.562 269.938C402.676 268.289 402.812 266.642 403 265Z" fill="#5F70F2"/>
<path d="M442 281C442.33 281.99 442.66 282.98 443 284C443.66 284.33 444.32 284.66 445 285C443.551 286.375 443.551 286.375 441.312 288C440.587 288.536 439.861 289.072 439.113 289.625C437 291 437 291 434 292C433.34 291.34 432.68 290.68 432 290C433.71 289.028 435.427 288.064 437.176 287.164C439.63 285.598 440.629 283.513 442 281Z" fill="#17368D"/>
<path d="M196 75C196.33 75 196.66 75 197 75C197.558 78.2448 197.971 81.5018 198.402 84.7656C198.824 87.9538 198.824 87.9538 200.254 90.3594C200.5 90.9008 200.746 91.4422 201 92C200.01 92.33 199.02 92.66 198 93C196.762 91.3828 196.762 91.3828 195.688 89.125C195.32 88.3851 194.953 87.6452 194.574 86.8828C194.385 86.2615 194.195 85.6402 194 85C194.66 84.67 195.32 84.34 196 84C196.206 81.8637 196.206 81.8637 196.062 79.4375C196.009 77.9591 195.979 76.4792 196 75Z" fill="#1E81C4"/>
<path d="M166 189C168.966 189.794 171.573 191.125 174 193C174.062 195.875 174.062 195.875 173 198C172.67 197.34 172.34 196.68 172 196C171.154 195.67 170.309 195.34 169.438 195C168.633 194.67 167.829 194.34 167 194C167 193.34 167 192.68 167 192C166.34 191.67 165.68 191.34 165 191C165.33 190.34 165.66 189.68 166 189Z" fill="#104FD4"/>
<path d="M228 98C228.66 98.33 229.32 98.66 230 99C229.67 99.99 229.34 100.98 229 102C226.75 102.836 226.75 102.836 224 103.375C223.092 103.568 222.185 103.762 221.25 103.961C220.136 103.98 220.136 103.98 219 104C218.67 103.01 218.34 102.02 218 101C219.836 100.305 219.836 100.305 222.375 99.875C225.479 99.5331 225.479 99.5331 228 98Z" fill="#114097"/>
<path d="M204 184C206 184.938 206 184.938 207 187C204.875 189.688 204.875 189.688 202 192C201.01 192 200.02 192 199 192C199.625 190.25 199.625 190.25 201 188C201.474 187.196 201.949 186.391 202.438 185.562C202.953 185.047 203.469 184.531 204 184Z" fill="#0D52CE"/>
<path d="M206 97C209.625 98.0625 209.625 98.0625 213 100C213 100.99 213 101.98 213 103C210.961 102.996 210.961 102.996 208.375 102.438C207.516 102.271 206.658 102.105 205.773 101.934C205.188 101.626 204.603 101.317 204 101C204.5 98.8438 204.5 98.8438 206 97Z" fill="#0F459F"/>
<path d="M298 292C301 291.5 301 291.5 304 292C304 293.32 304 294.64 304 296C301 296.5 301 296.5 298 296C298 294.68 298 293.36 298 292Z" fill="#6288FB"/>
<path d="M366 325C369.306 326.562 371.664 328.125 374 331C373.34 331.66 372.68 332.32 372 333C370.492 331.445 370.492 331.445 368.875 329.125C368.336 328.364 367.797 327.604 367.242 326.82C366.832 326.22 366.422 325.619 366 325Z" fill="#6691E4"/>
<path d="M103 110C105.438 110 105.438 110 107 111C104.812 113.75 104.812 113.75 102 116C101.67 115.01 101.34 114.02 101 113C101.66 112.01 102.32 111.02 103 110Z" fill="#ADE9F7"/>
<path d="M109 105C109.66 105.33 110.32 105.66 111 106C111 108.062 111 108.062 110 110C106.625 110.562 106.625 110.562 104 110C106 107.438 106 107.438 109 105Z" fill="#A4D9EF"/>
<path d="M437 287C437.66 287.33 438.32 287.66 439 288C439 288.66 439 289.32 439 290C436.625 291.25 436.625 291.25 434 292C433.34 291.34 432.68 290.68 432 290C434.25 288.312 434.25 288.312 437 287Z" fill="#243D9C"/>
<path d="M366 253C366.66 253.33 367.32 253.66 368 254C367.025 255.024 366.018 256.018 365 257C363.824 259.1 363.824 259.1 363 261C362.812 258.125 362.812 258.125 363 255C363.99 254.34 364.98 253.68 366 253Z" fill="#2C4EAD"/>
<path d="M316 328C316.99 328.33 317.98 328.66 319 329C317.188 331.875 317.188 331.875 315 334C314.688 331.875 314.688 331.875 315 329C315.33 328.67 315.66 328.34 316 328Z" fill="#163588"/>
<path d="M206 97C206.99 97.66 207.98 98.32 209 99C208.34 99.66 207.68 100.32 207 101C206.01 100.67 205.02 100.34 204 100C204.66 99.01 205.32 98.02 206 97Z" fill="#1254A7"/>
<path d="M194 181C194.66 181 195.32 181 196 181C196 181.99 196 182.98 196 184C193.875 183.812 193.875 183.812 192 183C192.66 182.34 193.32 181.68 194 181Z" fill="#54CBFD"/>
<path d="M211 159C211.66 159 212.32 159 213 159C212.188 161.75 212.188 161.75 211 164C210.312 162.375 210.312 162.375 210 160C210.33 159.67 210.66 159.34 211 159Z" fill="#1A6CE1"/>
<path d="M102 112C102.66 112 103.32 112 104 112C103.188 114.188 103.188 114.188 102 116C101.67 115.01 101.34 114.02 101 113C101.33 112.67 101.66 112.34 102 112Z" fill="#BEF4FB"/>
<path d="M137 138C137.66 138 138.32 138 139 138C139 138.99 139 139.98 139 141C138.01 140.67 137.02 140.34 136 140C136.33 139.34 136.66 138.68 137 138Z" fill="#1F70D5"/>
</g>
<defs>
<clipPath id="clip0_79_89">
<rect width="500" height="494" fill="white"/>
</clipPath>
</defs>
</svg>
